<?xml version="1.0" encoding="UTF-8" standalone="no"?>
<svg
   xmlns:dc="http://purl.org/dc/elements/1.1/"
   xmlns:cc="http://creativecommons.org/ns#"
   xmlns:rdf="http://www.w3.org/1999/02/22-rdf-syntax-ns#"
   xmlns:svg="http://www.w3.org/2000/svg"
   xmlns="http://www.w3.org/2000/svg"
   xmlns:sodipodi="http://sodipodi.sourceforge.net/DTD/sodipodi-0.dtd"
   xmlns:inkscape="http://www.inkscape.org/namespaces/inkscape"
   width="172px"
   height="172px"
   viewBox="0 0 172 172"
   version="1.1"
   id="svg2"
   inkscape:version="0.91 r13725"
   sodipodi:docname="blue-crystal.svg">
  <metadata
     id="metadata33">
    <rdf:RDF>
      <cc:Work
         rdf:about="">
        <dc:format>image/svg+xml</dc:format>
        <dc:type
           rdf:resource="http://purl.org/dc/dcmitype/StillImage" />
        <dc:title>icon-responsive-crystal</dc:title>
      </cc:Work>
    </rdf:RDF>
  </metadata>
  <sodipodi:namedview
     pagecolor="#ffffff"
     bordercolor="#666666"
     borderopacity="1"
     objecttolerance="10"
     gridtolerance="10"
     guidetolerance="10"
     inkscape:pageopacity="0"
     inkscape:pageshadow="2"
     inkscape:window-width="1191"
     inkscape:window-height="712"
     id="namedview31"
     showgrid="false"
     inkscape:zoom="3.8808651"
     inkscape:cx="90.251629"
     inkscape:cy="86"
     inkscape:window-x="0"
     inkscape:window-y="0"
     inkscape:window-maximized="0"
     inkscape:current-layer="svg2" />
  <!-- Generator: Sketch 41.2 (35397) - http://www.bohemiancoding.com/sketch -->
  <title
     id="title4">icon-responsive-crystal</title>
  <desc
     id="desc6">Created with Sketch.</desc>
  <defs
     id="defs8" />
  <g
     id="Symbols"
     stroke="none"
     stroke-width="1"
     fill="none"
     fill-rule="evenodd">
    <g
       id="icon-responsive-crystal">
      <g
         id="g12">
        <rect
           id="bounding-box"
           opacity="0.5"
           x="0"
           y="0"
           width="172"
           height="172" />
        <g
           id="Crystal"
           transform="translate(41.000000, 24.000000)">
          <g
             id="g16">
            <polygon
               id="Path-7"
               stroke="#00B0C1"
               stroke-width="2"
               stroke-linecap="round"
               stroke-linejoin="round"
               fill-opacity="0.15"
               fill="#00B0C1"
               points="48.1081081 0.603960396 27.6621622 16.3069307 0 74.2871287 27.6621622 118.376238 41.4932432 122 67.9527027 117.772277 86.5945946 105.089109 88.3986486 89.990099 84.1891892 54.960396" />
            <polygon
               id="Rectangle-33"
               fill="#FFFFFF"
               points="27.9067797 16.5679012 46.0084746 27.8641975 48.2711864 74.5555556 35.4491525 78.3209877 16.5932203 60.2469136" />
            <polygon
               id="Rectangle-33-Copy-2"
               fill="#FFFFFF"
               points="66.3117469 49.7037037 86.4367717 104.62937 68.574827 104.62937 48.2711864 74.0896569" />
            <polygon
               id="Rectangle-33-Copy-3"
               fill="#FFFFFF"
               points="34.9920202 107.21944 27.3169115 115.118487 7.52201023 83.4464902" />
            <polygon
               id="Rectangle-33-Copy"
               fill="#FFFFFF"
               points="48.2711864 2.25925926 80.8275002 52.553518 65.9957627 48.9506173" />
            <polyline
               id="Path-8"
               stroke="#00B0C1"
               stroke-width="2"
               stroke-linecap="round"
               stroke-linejoin="round"
               points="27.6621622 116.564356 35.4797297 107.50495 0 74.2871287" />
            <polyline
               id="Path-9"
               stroke="#00B0C1"
               stroke-width="2"
               stroke-linecap="round"
               stroke-linejoin="round"
               points="35.4797297 107.50495 68.5540541 105.089109 86.5945946 105.089109" />
            <polyline
               id="Path-10"
               stroke="#00B0C1"
               stroke-width="2"
               stroke-linecap="round"
               stroke-linejoin="round"
               points="68.5540541 104.485149 47.5067568 74.2871287 45.1013514 29.5940594 47.5067568 1.81188119" />
            <polyline
               id="Path-11"
               stroke="#00B0C1"
               stroke-width="2"
               stroke-linecap="round"
               stroke-linejoin="round"
               points="36.0810811 106.90099 34.8783784 77.9108911 47.5067568 74.2871287" />
            <polyline
               id="Path-12"
               stroke="#00B0C1"
               stroke-width="2"
               stroke-linecap="round"
               stroke-linejoin="round"
               points="34.8783784 77.3069307 15.6351351 59.7920792 0.601351351 73.6831683" />
            <polyline
               id="Path-13"
               stroke="#00B0C1"
               stroke-width="2"
               stroke-linecap="round"
               stroke-linejoin="round"
               points="16.2364865 59.7920792 27.6621622 16.9108911 45.1013514 28.3861386" />
            <polyline
               id="Path-26"
               stroke="#00B0C1"
               stroke-width="2"
               stroke-linecap="round"
               stroke-linejoin="round"
               points="48.1081081 74.2871287 65.847973 48.9207921 83.5878378 54.960396" />
            <path
               d="M48.1081081,1.81188119 L85.9932432,103.881188"
               id="Path-27"
               stroke="#00B0C1"
               stroke-width="2"
               stroke-linecap="round"
               stroke-linejoin="round" />
          </g>
        </g>
      </g>
    </g>
  </g>
  <path
     style="fill:#008080;fill-opacity:0.4458599"
     d="M 74.83577,145.18323 67.897405,143.33258 53.90086,121.04373 C 44.800566,106.55194 39.92645,98.558973 39.967592,98.194838 c 0.0348,-0.308027 6.31029,-13.642683 13.945529,-29.632568 l 13.882253,-29.072518 9.911295,-7.601398 c 11.754997,-9.01541 11.259013,-8.673755 11.917799,-8.209459 0.458962,0.323464 4.279239,6.025603 28.068562,41.895095 l 8.58394,12.942841 2.1292,17.849262 2.12921,17.849267 -0.93224,7.6014 c -0.51273,4.18077 -1.02439,7.74366 -1.13703,7.91753 -0.11263,0.17388 -4.46088,3.20076 -9.66279,6.72639 l -9.45801,6.41026 -13.270237,2.10625 c -7.29863,1.15844 -13.502144,2.09511 -13.785586,2.08148 -0.283442,-0.0136 -3.637614,-0.85758 -7.453717,-1.87544 z m -3.199348,-9.7456 c 1.749277,-2.00383 3.180504,-3.72069 3.180504,-3.81526 0,-0.34379 -16.676324,-15.84918 -21.902332,-20.36446 -1.700652,-1.46937 -3.370018,-2.91244 -3.709703,-3.20683 -0.51705,-0.44811 -0.47284,-0.30451 0.271523,0.88195 0.489023,0.77947 4.926427,7.88162 9.860899,15.78256 4.934471,7.90095 9.004805,14.36536 9.045185,14.36536 0.04038,0 1.504646,-1.6395 3.253924,-3.64332 z m 54.071218,-7.66884 c 0,-0.35566 -19.07443,-51.662602 -19.28723,-51.87935 -0.19766,-0.201319 -16.103473,22.377613 -16.095261,22.847854 0.0027,0.151397 4.553358,6.797656 10.112701,14.769456 l 10.10788,14.49419 7.58096,0 c 4.32656,0 7.58095,-0.0997 7.58095,-0.23215 z M 82.218328,98.957577 C 86.689047,97.665974 87.314287,97.42101 87.315346,96.9606 87.316119,96.671971 86.786242,86.637891 86.138088,74.662646 85.29977,59.173997 84.871159,52.839968 84.653135,52.717957 84.484567,52.62362 80.985582,50.329268 76.877616,47.619397 70.49355,43.408068 69.381628,42.759191 69.223006,43.15245 68.902011,43.948268 58.453662,83.397758 58.473004,83.740883 c 0.02247,0.398643 17.937763,16.688887 18.353704,16.688887 0.162693,0 2.588922,-0.662484 5.39162,-1.472193 z M 121.58485,76.326474 c 0,-0.314445 -28.893187,-44.748043 -29.01709,-44.624141 -0.08387,0.08386 14.72216,40.103901 14.88464,40.23254 0.24401,0.193181 11.12163,3.83563 12.33947,4.131958 1.74182,0.423823 1.79298,0.431234 1.79298,0.259643 z"
     id="path4169"
     inkscape:connector-curvature="0" />
  <path
     style="fill:#008080;fill-opacity:0.25477708"
     d="M 70.884515,95.35234 C 61.401943,86.757014 58.586722,84.124099 58.500828,83.770582 58.417567,83.427903 68.918398,43.63776 69.253466,43.026277 c 0.15935,-0.290805 5.17603,2.841981 14.355813,8.964832 l 1.319792,0.880292 0.165257,2.45662 c 0.186152,2.767237 1.187413,20.823476 1.861521,33.569784 0.245437,4.640795 0.392621,8.491434 0.327079,8.556976 -0.187623,0.187626 -9.911515,2.974989 -10.378429,2.974989 -0.230141,0 -2.939133,-2.284841 -6.019984,-5.07743 z"
     id="path4185"
     inkscape:connector-curvature="0" />
  <path
     style="fill:#008080;fill-opacity:0.25477708"
     d="m 109.91048,127.1635 c -0.51869,-0.69993 -6.87589,-9.82912 -17.619198,-25.30186 -2.108004,-3.035994 -2.131122,-3.086312 -1.716566,-3.736282 1.689865,-2.649481 15.522084,-22.285054 15.755724,-22.366086 0.1667,-0.05782 18.87571,50.020968 19.26117,51.556748 l 0.1719,0.68492 -7.61622,0 -7.61622,0 -0.62059,-0.83744 z"
     id="path4187"
     inkscape:connector-curvature="0" />
  <path
     style="fill:#008080;fill-opacity:0.25477708"
     d="m 118.87927,75.821367 c -1.13377,-0.339486 -4.19777,-1.347908 -6.80889,-2.240938 -4.68722,-1.603078 -4.7515,-1.635138 -5.06394,-2.52555 -0.17405,-0.496024 -3.51857,-9.528654 -7.43226,-20.072511 -3.913693,-10.543857 -7.073324,-19.213131 -7.021402,-19.265054 0.119218,-0.119217 0.285335,0.131617 10.864082,16.404534 12.73825,19.594819 18.16799,28.020572 18.16799,28.192716 0,0.252465 -0.5504,0.152131 -2.70558,-0.493197 z"
     id="path4189"
     inkscape:connector-curvature="0" />
  <path
     style="fill:#008080;fill-opacity:0.25477708"
     d="m 58.596159,123.58616 c -5.331029,-8.52213 -9.650889,-15.53668 -9.599687,-15.58788 0.170862,-0.17086 9.503777,8.12589 16.516655,14.68293 3.811332,3.5636 7.521845,7.01778 8.245584,7.67595 l 1.31589,1.19668 -0.533312,0.60704 c -0.293321,0.33387 -1.780098,2.02747 -3.303949,3.76356 -1.52385,1.73608 -2.810634,3.15651 -2.859519,3.15651 -0.04888,0 -4.450632,-6.97266 -9.781662,-15.49479 z"
     id="path4191"
     inkscape:connector-curvature="0" />
</svg>
