<?xml version="1.0" encoding="UTF-8" standalone="no"?>
<svg
   xmlns:dc="http://purl.org/dc/elements/1.1/"
   xmlns:cc="http://creativecommons.org/ns#"
   xmlns:rdf="http://www.w3.org/1999/02/22-rdf-syntax-ns#"
   xmlns:svg="http://www.w3.org/2000/svg"
   xmlns="http://www.w3.org/2000/svg"
   xmlns:sodipodi="http://sodipodi.sourceforge.net/DTD/sodipodi-0.dtd"
   xmlns:inkscape="http://www.inkscape.org/namespaces/inkscape"
   width="172px"
   height="172px"
   viewBox="0 0 172 172"
   version="1.1"
   id="svg2"
   inkscape:version="0.91 r13725"
   sodipodi:docname="green-crystal.svg">
  <metadata
     id="metadata33">
    <rdf:RDF>
      <cc:Work
         rdf:about="">
        <dc:format>image/svg+xml</dc:format>
        <dc:type
           rdf:resource="http://purl.org/dc/dcmitype/StillImage" />
        <dc:title>icon-responsive-crystal</dc:title>
      </cc:Work>
    </rdf:RDF>
  </metadata>
  <sodipodi:namedview
     pagecolor="#ffffff"
     bordercolor="#666666"
     borderopacity="1"
     objecttolerance="10"
     gridtolerance="10"
     guidetolerance="10"
     inkscape:pageopacity="0"
     inkscape:pageshadow="2"
     inkscape:window-width="1191"
     inkscape:window-height="712"
     id="namedview31"
     showgrid="false"
     inkscape:zoom="3.8808651"
     inkscape:cx="72.119362"
     inkscape:cy="85.943065"
     inkscape:window-x="0"
     inkscape:window-y="0"
     inkscape:window-maximized="0"
     inkscape:current-layer="svg2" />
  <!-- Generator: Sketch 41.2 (35397) - http://www.bohemiancoding.com/sketch -->
  <title
     id="title4">icon-responsive-crystal</title>
  <desc
     id="desc6">Created with Sketch.</desc>
  <defs
     id="defs8" />
  <g
     id="Symbols"
     stroke="none"
     stroke-width="1"
     fill="none"
     fill-rule="evenodd">
    <g
       id="icon-responsive-crystal">
      <g
         id="g12">
        <rect
           id="bounding-box"
           opacity="0.5"
           x="0"
           y="0"
           width="172"
           height="172" />
        <g
           id="Crystal"
           transform="translate(41.000000, 24.000000)">
          <g
             id="g16">
            <polygon
               id="Path-7"
               stroke="#00B0C1"
               stroke-width="2"
               stroke-linecap="round"
               stroke-linejoin="round"
               fill-opacity="0.15"
               fill="#00B0C1"
               points="48.1081081 0.603960396 27.6621622 16.3069307 0 74.2871287 27.6621622 118.376238 41.4932432 122 67.9527027 117.772277 86.5945946 105.089109 88.3986486 89.990099 84.1891892 54.960396" />
            <polygon
               id="Rectangle-33"
               fill="#FFFFFF"
               points="27.9067797 16.5679012 46.0084746 27.8641975 48.2711864 74.5555556 35.4491525 78.3209877 16.5932203 60.2469136" />
            <polygon
               id="Rectangle-33-Copy-2"
               fill="#FFFFFF"
               points="66.3117469 49.7037037 86.4367717 104.62937 68.574827 104.62937 48.2711864 74.0896569" />
            <polygon
               id="Rectangle-33-Copy-3"
               fill="#FFFFFF"
               points="34.9920202 107.21944 27.3169115 115.118487 7.52201023 83.4464902" />
            <polygon
               id="Rectangle-33-Copy"
               fill="#FFFFFF"
               points="48.2711864 2.25925926 80.8275002 52.553518 65.9957627 48.9506173" />
            <polyline
               id="Path-8"
               stroke="#00B0C1"
               stroke-width="2"
               stroke-linecap="round"
               stroke-linejoin="round"
               points="27.6621622 116.564356 35.4797297 107.50495 0 74.2871287" />
            <polyline
               id="Path-9"
               stroke="#00B0C1"
               stroke-width="2"
               stroke-linecap="round"
               stroke-linejoin="round"
               points="35.4797297 107.50495 68.5540541 105.089109 86.5945946 105.089109" />
            <polyline
               id="Path-10"
               stroke="#00B0C1"
               stroke-width="2"
               stroke-linecap="round"
               stroke-linejoin="round"
               points="68.5540541 104.485149 47.5067568 74.2871287 45.1013514 29.5940594 47.5067568 1.81188119" />
            <polyline
               id="Path-11"
               stroke="#00B0C1"
               stroke-width="2"
               stroke-linecap="round"
               stroke-linejoin="round"
               points="36.0810811 106.90099 34.8783784 77.9108911 47.5067568 74.2871287" />
            <polyline
               id="Path-12"
               stroke="#00B0C1"
               stroke-width="2"
               stroke-linecap="round"
               stroke-linejoin="round"
               points="34.8783784 77.3069307 15.6351351 59.7920792 0.601351351 73.6831683" />
            <polyline
               id="Path-13"
               stroke="#00B0C1"
               stroke-width="2"
               stroke-linecap="round"
               stroke-linejoin="round"
               points="16.2364865 59.7920792 27.6621622 16.9108911 45.1013514 28.3861386" />
            <polyline
               id="Path-26"
               stroke="#00B0C1"
               stroke-width="2"
               stroke-linecap="round"
               stroke-linejoin="round"
               points="48.1081081 74.2871287 65.847973 48.9207921 83.5878378 54.960396" />
            <path
               d="M48.1081081,1.81188119 L85.9932432,103.881188"
               id="Path-27"
               stroke="#00B0C1"
               stroke-width="2"
               stroke-linecap="round"
               stroke-linejoin="round" />
          </g>
        </g>
      </g>
    </g>
  </g>
  <path
     style="fill:#008000;fill-opacity:0.53503186"
     d="m 74.730244,145.02058 c -3.680144,-0.98236 -6.711741,-1.8092 -6.736885,-1.83743 -0.545221,-0.61201 -27.928706,-44.613123 -27.928706,-44.877203 0,-0.209121 6.272048,-13.515505 13.937883,-29.56974 L 67.94042,39.546687 78.209385,31.687615 c 5.647929,-4.32249 10.545456,-7.893839 10.883391,-7.93633 0.552402,-0.06946 2.454063,2.696089 18.838074,27.395839 l 18.22364,27.473096 2.05701,17.053015 c 1.13136,9.379155 2.06255,17.574805 2.06931,18.212545 0.0149,1.40608 -1.50188,14.58385 -1.77119,15.38788 -0.16669,0.49767 -6.76878,5.13865 -17.19797,12.08942 l -2.06139,1.37386 -12.857633,2.06559 c -7.071696,1.13607 -13.333186,2.05177 -13.914423,2.03487 -0.581236,-0.0169 -4.067817,-0.83446 -7.74796,-1.81682 z m 20.907109,-2.13563 c 6.636777,-1.05698 12.361047,-2.02319 12.720617,-2.14715 0.35956,-0.12395 4.04787,-2.53484 8.19624,-5.35753 l 7.54248,-5.13216 -7.26279,-0.0685 c -6.51632,-0.0615 -8.89216,0.0511 -23.116179,1.09511 -8.719373,0.63998 -16.042036,1.16361 -16.272588,1.16361 -0.410599,0 -7.6661,8.15953 -7.805783,8.77838 -0.08216,0.36401 11.458265,3.53624 12.98544,3.56944 0.520139,0.0113 6.375792,-0.84425 13.012563,-1.90122 z m -23.897927,-7.41893 3.391463,-3.92953 -0.870651,-0.77303 c -0.47886,-0.42516 -7.006309,-6.51271 -14.505444,-13.52788 -7.499134,-7.01517 -13.45414,-12.46498 -13.233347,-12.1107 9.786244,15.70296 21.515554,34.27068 21.64894,34.27068 0.09767,0 1.703736,-1.76829 3.569039,-3.92954 z m 22.372455,-6.28289 c 7.546639,-0.54101 13.721169,-1.07287 13.721169,-1.1819 0,-0.13743 -19.054475,-27.68336 -19.698919,-28.477555 -0.0273,-0.03364 -2.575647,0.662075 -5.662997,1.546045 l -5.61336,1.60722 0.150374,2.19023 c 0.08271,1.20463 0.338381,7.29219 0.568162,13.52792 0.229784,6.23572 0.466512,11.49806 0.526066,11.69409 0.07914,0.26053 0.401557,0.31892 1.198307,0.21702 0.599516,-0.0767 7.264556,-0.58206 14.811198,-1.12307 z M 75.370274,114.44679 c -0.298944,-7.02986 -0.567127,-12.79369 -0.595966,-12.8085 -0.02884,-0.0148 -3.937214,-3.555665 -8.685282,-7.868561 -4.748067,-4.312897 -8.831481,-7.997496 -9.074254,-8.187994 -0.393735,-0.308957 -1.18675,0.342841 -7.342971,6.03536 -3.795861,3.509947 -6.901565,6.503184 -6.901565,6.651638 0,0.148454 7.421025,7.223407 16.491168,15.722107 l 16.491168,15.45219 0.08062,-1.10734 c 0.04434,-0.60904 -0.163973,-6.85904 -0.462914,-13.8889 z m 50.431906,13.16016 c -0.14447,-0.50819 -18.60756,-50.242383 -19.09742,-51.442896 l -0.31503,-0.772068 -0.65853,0.887591 c -0.3622,0.488172 -4.04304,5.736025 -8.179666,11.661889 l -7.521135,10.774304 6.494933,9.32431 c 3.572208,5.12837 8.173458,11.73034 10.224978,14.67105 l 3.73005,5.34675 7.72501,0 c 7.23419,0 7.71685,-0.0286 7.59681,-0.45093 z m 0.52127,-30.598848 c -1.12404,-9.353585 -2.06665,-17.029796 -2.09468,-17.058251 -0.2974,-0.301876 -15.90011,-5.389257 -15.8186,-5.157772 0.0608,0.172531 4.27503,11.555137 9.36505,25.294691 l 9.25458,24.98099 0.66868,-5.52657 0.66869,-5.52657 -2.04372,-17.006518 z m -38.915945,0.529294 c 0.03277,-0.02597 -0.459148,-9.605894 -1.093151,-21.288725 -0.634,-11.682833 -1.154372,-21.705328 -1.156376,-22.272211 l -0.0037,-1.030698 -7.633355,-5.024653 c -4.198352,-2.763559 -7.774619,-5.107566 -7.947256,-5.208903 -0.229493,-0.134709 -1.781204,5.338636 -5.771072,20.356286 -3.00145,11.297295 -5.454012,20.623669 -5.450138,20.725275 0.0039,0.101607 4.122635,3.936741 9.1528,8.522518 l 9.145757,8.337775 5.348434,-1.534723 c 2.94164,-0.8441 5.375247,-1.555972 5.408016,-1.581941 z M 97.798512,84.124377 c 4.159118,-5.952281 7.562268,-10.99626 7.562548,-11.208841 2.6e-4,-0.212582 -3.58627,-10.047884 -7.970122,-21.856225 -5.346233,-14.400624 -8.029168,-21.31521 -8.148415,-21.000472 -0.09778,0.258082 -0.611961,5.665904 -1.142624,12.017382 l -0.964839,11.548142 1.126795,21.115279 c 1.04804,19.63944 1.156425,21.083539 1.550709,20.661171 0.233151,-0.249758 3.826829,-5.324155 7.985948,-11.276436 z m -46.653855,3.347124 5.282327,-4.860055 4.292475,-15.992378 c 2.360861,-8.795806 4.270587,-16.01521 4.243836,-16.043116 -0.05218,-0.05444 -19.991672,41.653811 -20.339681,42.545344 -0.184567,0.472825 -0.126468,0.458349 0.515349,-0.128417 0.397852,-0.363729 3.100414,-2.848347 6.005694,-5.521378 z M 122.45212,76.716235 c -4.92045,-7.40344 -25.773536,-39.017974 -27.620129,-41.87378 -1.398078,-2.162164 -2.579059,-3.89411 -2.624399,-3.848768 -0.07655,0.07655 15.021038,40.903228 15.171088,41.025425 0.0701,0.05709 15.19723,5.238958 15.36471,5.263249 0.0517,0.0075 -0.0793,-0.247254 -0.29127,-0.566126 z M 85.41072,50.175761 c -0.0026,-0.177152 0.42085,-5.280864 0.940901,-11.341583 0.520052,-6.06072 0.879072,-11.085967 0.797823,-11.167217 -0.08125,-0.08125 -3.973967,2.787311 -8.650481,6.374581 l -8.502754,6.522308 7.516324,4.96097 c 4.133975,2.728533 7.603287,4.963685 7.709577,4.967002 0.106291,0.0033 0.191164,-0.13891 0.18861,-0.316061 z"
     id="path4226"
     inkscape:connector-curvature="0" />
  <path
     style="fill:#008000;fill-opacity:0.53503185"
     d="m 77.675488,45.741967 c -4.175465,-2.744445 -7.578597,-5.087181 -7.562516,-5.206078 0.02847,-0.210513 17.176869,-13.473719 17.293601,-13.375513 0.09367,0.0788 -1.929788,23.361951 -2.039871,23.472034 -0.0547,0.0547 -3.515749,-2.145997 -7.691214,-4.890443 z"
     id="path4250"
     inkscape:connector-curvature="0" />
  <path
     style="fill:#008000;fill-opacity:0.53503185"
     d="m 89.279953,96.351032 c -2.84e-4,-0.06378 -0.51919,-9.701904 -1.153106,-21.418062 l -1.152574,-21.302109 1.02296,-11.809066 c 0.562628,-6.494985 1.023548,-12.147262 1.024268,-12.560615 7.2e-4,-0.413353 0.06214,-0.690721 0.136486,-0.616373 0.118645,0.118645 2.890377,7.499205 7.868112,20.951186 0.839073,2.267536 3.136661,8.471049 5.105761,13.785586 3.5272,9.519816 3.57355,9.672325 3.13254,10.30698 -5.336802,7.6802 -15.600301,22.351032 -15.764199,22.533636 -0.120845,0.134635 -0.219956,0.192611 -0.220248,0.128837 z"
     id="path4280"
     inkscape:connector-curvature="0" />
  <path
     style="fill:#008000;fill-opacity:0.53503185"
     d="m 43.929771,94.245893 c 0,-0.06724 2.872341,-6.140582 6.38298,-13.49631 3.510639,-7.355727 8.351698,-17.506459 10.75791,-22.557181 2.406212,-5.050723 4.409571,-9.151759 4.451908,-9.113414 0.09559,0.08658 -8.635824,32.831465 -8.902363,33.38597 -0.106272,0.221087 -1.004896,1.141413 -1.996943,2.04517 -0.992047,0.903755 -3.253141,2.991519 -5.024653,4.639476 -4.504123,4.189981 -5.668839,5.237059 -5.668839,5.096289 z"
     id="path4282"
     inkscape:connector-curvature="0" />
  <path
     style="fill:#008000;fill-opacity:0.53503185"
     d="M 60.800859,115.67469 C 42.121488,98.187349 42.345129,98.400297 42.437284,98.189146 c 0.0414,-0.09486 3.237331,-3.103307 7.102063,-6.68543 l 7.026787,-6.51295 0.608512,0.468666 c 0.539935,0.415848 12.595088,11.359217 16.452112,14.934818 l 1.481628,1.37352 0,1.59266 c 0,0.87596 0.236963,7.09494 0.526584,13.81995 0.289623,6.72501 0.489576,12.33833 0.444339,12.47403 -0.04523,0.13571 -6.920537,-6.15516 -15.27845,-13.97972 z"
     id="path4284"
     inkscape:connector-curvature="0" />
  <path
     style="fill:#008000;fill-opacity:0.53503185"
     d="m 77.942927,130.38376 c 0.0011,-1.27055 -1.056185,-25.51623 -1.154877,-26.48287 -0.07596,-0.74403 -0.107996,-1.35279 -0.07118,-1.35279 0.03682,0 2.501721,-0.69572 5.477564,-1.54604 2.975843,-0.85033 5.584676,-1.540603 5.797406,-1.533946 0.21273,0.0067 2.242039,2.696126 4.509574,5.976596 5.965808,8.6308 12.887165,18.57812 14.468135,20.79351 0.75227,1.05415 1.33459,1.94981 1.29403,1.99036 -0.0406,0.0406 -6.44449,0.53757 -14.230974,1.10448 -7.786483,0.5669 -14.592067,1.06575 -15.123521,1.10854 -0.531454,0.0428 -0.966225,0.0168 -0.966158,-0.0578 z"
     id="path4286"
     inkscape:connector-curvature="0" />
  <path
     style="fill:#008000;fill-opacity:0.53503185"
     d="m 80.777225,144.67931 c -0.637744,-0.19205 -3.507594,-0.95404 -6.377444,-1.69331 -2.86985,-0.73927 -5.217909,-1.42338 -5.217909,-1.52025 0,-0.0969 1.680405,-2.13867 3.734232,-4.53734 2.994018,-3.49673 3.900639,-4.39903 4.573722,-4.55192 0.46172,-0.10488 8.260517,-0.71773 17.33066,-1.36189 14.392724,-1.02216 17.343664,-1.16184 23.190704,-1.09768 l 6.69954,0.0735 -2.0614,1.43887 c -1.13377,0.79138 -4.26451,2.9266 -6.95721,4.74494 -2.6927,1.81834 -5.35963,3.63211 -5.92651,4.03061 -0.96464,0.6781 -1.86026,0.85704 -13.974189,2.79203 -7.118916,1.13713 -13.1485,2.05943 -13.399073,2.04956 -0.250573,-0.01 -0.977378,-0.17508 -1.615123,-0.36714 z"
     id="path4288"
     inkscape:connector-curvature="0" />
  <path
     style="fill:#008000;fill-opacity:0.53503185"
     d="m 124.22372,117.96725 c -1.54102,-4.15804 -3.66343,-9.87914 -4.71647,-12.71356 -1.05305,-2.83442 -3.11822,-8.400193 -4.58927,-12.36838 -1.47105,-3.968188 -3.5624,-9.591934 -4.64744,-12.497214 -1.08504,-2.90528 -2.03121,-5.478793 -2.10261,-5.718919 -0.10105,-0.339835 1.67632,0.174114 8.01993,2.31907 6.7035,2.266646 8.17036,2.847116 8.26588,3.271012 0.0639,0.283442 1.00343,7.936375 2.0879,17.006517 l 1.97177,16.491164 -0.58158,5.09147 c -0.31987,2.80031 -0.65464,5.44864 -0.74392,5.88519 -0.13782,0.67387 -0.58544,-0.34791 -2.96419,-6.76635 z"
     id="path4290"
     inkscape:connector-curvature="0" />
  <path
     style="fill:#008000;fill-opacity:0.29936305"
     d="m 67.506988,92.452169 c -4.960234,-4.542804 -9.053479,-8.461245 -9.096099,-8.707648 -0.08572,-0.495552 10.588156,-40.879966 10.8827,-41.17451 0.05067,-0.05067 3.628876,2.238713 7.951564,5.087525 l 7.859432,5.179657 0.158148,2.244518 c 0.401781,5.702257 2.261261,42.351562 2.154228,42.458594 -0.125196,0.125199 -10.534861,3.204125 -10.762528,3.183295 -0.07086,-0.006 -4.187211,-3.728629 -9.147445,-8.271431 z"
     id="path4292"
     inkscape:connector-curvature="0" />
  <path
     style="fill:#008000;fill-opacity:0.29936308"
     d="M 110.20562,127.73579 C 108.71297,125.937 90.065299,98.76625 90.157864,98.525028 90.27818,98.211489 105.88958,75.823547 106.27105,75.417494 c 0.10521,-0.111993 0.95559,1.859217 1.88974,4.380467 0.93415,2.521249 5.30093,14.289258 9.70396,26.151129 4.40303,11.86187 8.00551,21.68893 8.00551,21.83791 0,0.42129 -15.3141,0.37122 -15.66464,-0.0512 z"
     id="path4294"
     inkscape:connector-curvature="0" />
  <path
     style="fill:#008000;fill-opacity:0.29936308"
     d="m 114.94136,74.71523 c -4.09767,-1.404679 -7.53171,-2.645148 -7.63121,-2.756594 -0.0995,-0.11145 -2.80016,-7.275801 -6.00145,-15.92078 -8.951486,-24.173146 -9.432045,-25.486257 -9.355289,-25.563013 0.03946,-0.03946 1.451292,2.043536 3.137399,4.628885 1.686107,2.585348 8.60553,13.083162 15.3765,23.328475 6.77097,10.245314 12.31086,18.680933 12.31086,18.74582 0,0.214298 -0.32824,0.111143 -7.83681,-2.462793 z"
     id="path4296"
     inkscape:connector-curvature="0" />
  <path
     style="fill:#008000;fill-opacity:0.29936308"
     d="M 65.948448,136.23905 C 55.296289,119.34728 46.223463,104.80676 46.292737,104.7379 c 0.143519,-0.14264 28.686812,26.57973 28.686812,26.85674 0,0.34255 -6.510411,7.80092 -6.809421,7.80092 -0.127128,0 -1.126884,-1.42043 -2.22168,-3.15651 z"
     id="path4298"
     inkscape:connector-curvature="0" />
</svg>
