<?xml version="1.0" encoding="UTF-8" standalone="no"?>
<svg
   xmlns:dc="http://purl.org/dc/elements/1.1/"
   xmlns:cc="http://creativecommons.org/ns#"
   xmlns:rdf="http://www.w3.org/1999/02/22-rdf-syntax-ns#"
   xmlns:svg="http://www.w3.org/2000/svg"
   xmlns="http://www.w3.org/2000/svg"
   xmlns:sodipodi="http://sodipodi.sourceforge.net/DTD/sodipodi-0.dtd"
   xmlns:inkscape="http://www.inkscape.org/namespaces/inkscape"
   width="172px"
   height="172px"
   viewBox="0 0 172 172"
   version="1.1"
   id="svg2"
   inkscape:version="0.91 r13725"
   sodipodi:docname="orange-crystal.svg">
  <metadata
     id="metadata33">
    <rdf:RDF>
      <cc:Work
         rdf:about="">
        <dc:format>image/svg+xml</dc:format>
        <dc:type
           rdf:resource="http://purl.org/dc/dcmitype/StillImage" />
      </cc:Work>
    </rdf:RDF>
  </metadata>
  <sodipodi:namedview
     pagecolor="#ffffff"
     bordercolor="#666666"
     borderopacity="1"
     objecttolerance="10"
     gridtolerance="10"
     guidetolerance="10"
     inkscape:pageopacity="0"
     inkscape:pageshadow="2"
     inkscape:window-width="1191"
     inkscape:window-height="712"
     id="namedview31"
     showgrid="false"
     inkscape:zoom="4"
     inkscape:cx="79.367179"
     inkscape:cy="47.366025"
     inkscape:window-x="0"
     inkscape:window-y="0"
     inkscape:window-maximized="0"
     inkscape:current-layer="svg2" />
  <!-- Generator: Sketch 41.2 (35397) - http://www.bohemiancoding.com/sketch -->
  <title
     id="title4">icon-responsive-crystal</title>
  <desc
     id="desc6">Created with Sketch.</desc>
  <defs
     id="defs8" />
  <g
     id="Symbols"
     stroke="none"
     stroke-width="1"
     fill="none"
     fill-rule="evenodd">
    <g
       id="icon-responsive-crystal">
      <g
         id="g12">
        <rect
           id="bounding-box"
           opacity="0.5"
           x="0"
           y="0"
           width="172"
           height="172" />
        <g
           id="Crystal"
           transform="translate(41.000000, 24.000000)">
          <g
             id="g16">
            <polygon
               id="Path-7"
               stroke="#00B0C1"
               stroke-width="2"
               stroke-linecap="round"
               stroke-linejoin="round"
               fill-opacity="0.15"
               fill="#00B0C1"
               points="48.1081081 0.603960396 27.6621622 16.3069307 0 74.2871287 27.6621622 118.376238 41.4932432 122 67.9527027 117.772277 86.5945946 105.089109 88.3986486 89.990099 84.1891892 54.960396" />
            <polygon
               id="Rectangle-33"
               fill="#FFFFFF"
               points="27.9067797 16.5679012 46.0084746 27.8641975 48.2711864 74.5555556 35.4491525 78.3209877 16.5932203 60.2469136" />
            <polygon
               id="Rectangle-33-Copy-2"
               fill="#FFFFFF"
               points="66.3117469 49.7037037 86.4367717 104.62937 68.574827 104.62937 48.2711864 74.0896569" />
            <polygon
               id="Rectangle-33-Copy-3"
               fill="#FFFFFF"
               points="34.9920202 107.21944 27.3169115 115.118487 7.52201023 83.4464902" />
            <polygon
               id="Rectangle-33-Copy"
               fill="#FFFFFF"
               points="48.2711864 2.25925926 80.8275002 52.553518 65.9957627 48.9506173" />
            <polyline
               id="Path-8"
               stroke="#00B0C1"
               stroke-width="2"
               stroke-linecap="round"
               stroke-linejoin="round"
               points="27.6621622 116.564356 35.4797297 107.50495 0 74.2871287" />
            <polyline
               id="Path-9"
               stroke="#00B0C1"
               stroke-width="2"
               stroke-linecap="round"
               stroke-linejoin="round"
               points="35.4797297 107.50495 68.5540541 105.089109 86.5945946 105.089109" />
            <polyline
               id="Path-10"
               stroke="#00B0C1"
               stroke-width="2"
               stroke-linecap="round"
               stroke-linejoin="round"
               points="68.5540541 104.485149 47.5067568 74.2871287 45.1013514 29.5940594 47.5067568 1.81188119" />
            <polyline
               id="Path-11"
               stroke="#00B0C1"
               stroke-width="2"
               stroke-linecap="round"
               stroke-linejoin="round"
               points="36.0810811 106.90099 34.8783784 77.9108911 47.5067568 74.2871287" />
            <polyline
               id="Path-12"
               stroke="#00B0C1"
               stroke-width="2"
               stroke-linecap="round"
               stroke-linejoin="round"
               points="34.8783784 77.3069307 15.6351351 59.7920792 0.601351351 73.6831683" />
            <polyline
               id="Path-13"
               stroke="#00B0C1"
               stroke-width="2"
               stroke-linecap="round"
               stroke-linejoin="round"
               points="16.2364865 59.7920792 27.6621622 16.9108911 45.1013514 28.3861386" />
            <polyline
               id="Path-26"
               stroke="#00B0C1"
               stroke-width="2"
               stroke-linecap="round"
               stroke-linejoin="round"
               points="48.1081081 74.2871287 65.847973 48.9207921 83.5878378 54.960396" />
            <path
               d="M48.1081081,1.81188119 L85.9932432,103.881188"
               id="Path-27"
               stroke="#00B0C1"
               stroke-width="2"
               stroke-linecap="round"
               stroke-linejoin="round" />
          </g>
        </g>
      </g>
    </g>
  </g>
  <path
     style="fill:#ffa500;fill-opacity:0"
     d="m 75.108386,145.27724 c -3.954054,-1.043 -7.009174,-1.9821 -7.257892,-2.23097 C 67.408621,142.60413 40.466666,99.767335 40.004537,98.772144 39.78694,98.303553 41.904601,93.688772 53.602518,69.139576 61.223161,53.146931 67.70111,39.807547 67.997959,39.496504 69.020504,38.42507 88.636934,23.456486 89.022809,23.453207 c 0.212582,-0.0018 0.51748,0.08191 0.677553,0.186025 0.50035,0.325457 36.685248,54.964958 36.685248,55.395032 0,0.224234 0.9361,8.18023 2.08021,17.679994 l 2.0802,17.272302 -0.9161,7.64687 c -0.50386,4.20579 -0.98255,7.80666 -1.06377,8.00195 -0.0812,0.19528 -4.40253,3.2434 -9.60294,6.77359 l -9.45528,6.41853 -13.399072,2.14674 c -7.369491,1.1807 -13.573004,2.13716 -13.785586,2.12546 -0.212581,-0.0117 -3.45928,-0.83181 -7.214886,-1.82246 z"
     id="path4323"
     inkscape:connector-curvature="0" />
  <path
     style="fill:#ffa500;fill-opacity:0"
     d="m 75.108386,145.27724 c -3.954054,-1.043 -7.009174,-1.9821 -7.257892,-2.23097 C 67.408621,142.60413 40.466666,99.767335 40.004537,98.772144 39.78694,98.303553 41.904601,93.688772 53.602518,69.139576 61.223161,53.146931 67.70111,39.807547 67.997959,39.496504 69.020504,38.42507 88.636934,23.456486 89.022809,23.453207 c 0.212582,-0.0018 0.51748,0.08191 0.677553,0.186025 0.50035,0.325457 36.685248,54.964958 36.685248,55.395032 0,0.224234 0.9361,8.18023 2.08021,17.679994 l 2.0802,17.272302 -0.9161,7.64687 c -0.50386,4.20579 -0.98255,7.80666 -1.06377,8.00195 -0.0812,0.19528 -4.40253,3.2434 -9.60294,6.77359 l -9.45528,6.41853 -13.399072,2.14674 c -7.369491,1.1807 -13.573004,2.13716 -13.785586,2.12546 -0.212581,-0.0117 -3.45928,-0.83181 -7.214886,-1.82246 z"
     id="path4327"
     inkscape:connector-curvature="0" />
  <path
     style="fill:#ffa500;fill-opacity:0"
     d="m 75.108386,145.27724 c -3.954054,-1.043 -7.009174,-1.9821 -7.257892,-2.23097 C 67.408621,142.60413 40.466666,99.767335 40.004537,98.772144 39.78694,98.303553 41.904601,93.688772 53.602518,69.139576 61.223161,53.146931 67.70111,39.807547 67.997959,39.496504 69.020504,38.42507 88.636934,23.456486 89.022809,23.453207 c 0.212582,-0.0018 0.51748,0.08191 0.677553,0.186025 0.50035,0.325457 36.685248,54.964958 36.685248,55.395032 0,0.224234 0.9361,8.18023 2.08021,17.679994 l 2.0802,17.272302 -0.9161,7.64687 c -0.50386,4.20579 -0.98255,7.80666 -1.06377,8.00195 -0.0812,0.19528 -4.40253,3.2434 -9.60294,6.77359 l -9.45528,6.41853 -13.399072,2.14674 c -7.369491,1.1807 -13.573004,2.13716 -13.785586,2.12546 -0.212581,-0.0117 -3.45928,-0.83181 -7.214886,-1.82246 z"
     id="path4331"
     inkscape:connector-curvature="0" />
  <path
     style="fill:#ffa500;fill-opacity:0"
     d="m 75.108386,145.27724 c -3.973047,-1.04801 -7.006332,-1.9809 -7.253952,-2.23097 -0.437281,-0.4416 -27.699036,-43.826983 -27.949702,-44.480209 -0.19256,-0.501803 27.3876,-58.330682 28.224527,-59.179956 0.366357,-0.371763 5.164192,-4.122607 10.661857,-8.33521 8.028344,-6.151743 10.107729,-7.62976 10.564655,-7.509312 0.40683,0.107242 5.734394,7.939109 18.700959,27.491628 9.97263,15.037918 18.1765,27.533745 18.23081,27.768507 0.0543,0.234765 1.03438,8.253706 2.1779,17.819872 l 2.07914,17.39303 -0.93131,7.71752 c -0.51221,4.24463 -1.06181,7.87476 -1.22131,8.06695 -0.38752,0.46694 -18.24056,12.58826 -19.03468,12.92361 -0.61238,0.25859 -26.361202,4.42559 -27.061401,4.37941 -0.197515,-0.013 -3.431887,-0.83422 -7.187493,-1.82487 z m -3.203239,-10.1483 c 1.620061,-1.87061 2.945565,-3.46157 2.945565,-3.53546 0,-0.0739 -3.971409,-3.84315 -8.825352,-8.37612 -8.542987,-7.97809 -17.373666,-15.86667 -17.170278,-15.33848 0.05464,0.14189 4.447599,7.21946 9.762136,15.72794 7.58755,12.14752 9.735767,15.41124 10.002579,15.1966 0.186883,-0.15035 1.665291,-1.80386 3.28535,-3.67448 z m 53.843213,-7.52199 c -0.30637,-0.78031 -18.73368,-50.397078 -19.04791,-51.287779 l -0.29917,-0.847991 -7.980631,11.406742 c -4.389346,6.27371 -7.98063,11.601354 -7.98063,11.839211 0,0.237857 4.522188,6.933307 10.049301,14.878777 l 10.04931,14.44632 7.69339,0.008 c 7.22446,0.007 7.68259,-0.0197 7.51634,-0.4431 l 0,-1e-5 z M 82.179662,98.991131 87.31838,97.510304 87.255858,95.970831 C 87.221471,95.12412 86.736873,85.850796 86.178972,75.363443 85.62107,64.876091 85.134063,55.550209 85.096731,54.63926 l -0.06788,-1.656267 -7.601398,-5.011154 c -4.180769,-2.756135 -7.719429,-5.056673 -7.86369,-5.112308 -0.232809,-0.08978 -10.99522,39.520799 -11.053107,40.680479 -0.02239,0.448474 17.758047,16.92071 18.27261,16.92819 0.141721,0.002 2.570097,-0.662616 5.396392,-1.477069 z M 121.58587,76.200886 c -0.26414,-0.443095 -18.49455,-28.552689 -24.312457,-37.487551 -2.605478,-4.001368 -4.766808,-7.245638 -4.802957,-7.209488 -0.105946,0.105944 14.825634,40.207511 15.039394,40.391146 0.28872,0.248019 10.06004,3.571335 12.09408,4.113304 2.18601,0.582463 2.21611,0.585388 1.98194,0.192589 z"
     id="path4359"
     inkscape:connector-curvature="0" />
  <path
     style="fill:#ffa500;fill-opacity:0"
     d="m 75.108386,145.27724 c -3.973047,-1.04801 -7.006332,-1.9809 -7.253952,-2.23097 -0.437281,-0.4416 -27.699036,-43.826983 -27.949702,-44.480209 -0.19256,-0.501803 27.3876,-58.330682 28.224527,-59.179956 0.366357,-0.371763 5.164192,-4.122607 10.661857,-8.33521 8.028344,-6.151743 10.107729,-7.62976 10.564655,-7.509312 0.40683,0.107242 5.734394,7.939109 18.700959,27.491628 9.97263,15.037918 18.1765,27.533745 18.23081,27.768507 0.0543,0.234765 1.03438,8.253706 2.1779,17.819872 l 2.07914,17.39303 -0.93131,7.71752 c -0.51221,4.24463 -1.06181,7.87476 -1.22131,8.06695 -0.38752,0.46694 -18.24056,12.58826 -19.03468,12.92361 -0.61238,0.25859 -26.361202,4.42559 -27.061401,4.37941 -0.197515,-0.013 -3.431887,-0.83422 -7.187493,-1.82487 z m -3.203239,-10.1483 c 1.620061,-1.87061 2.945565,-3.46157 2.945565,-3.53546 0,-0.0739 -3.971409,-3.84315 -8.825352,-8.37612 -8.542987,-7.97809 -17.373666,-15.86667 -17.170278,-15.33848 0.05464,0.14189 4.447599,7.21946 9.762136,15.72794 7.58755,12.14752 9.735767,15.41124 10.002579,15.1966 0.186883,-0.15035 1.665291,-1.80386 3.28535,-3.67448 z m 53.843213,-7.52199 c -0.30637,-0.78031 -18.73368,-50.397078 -19.04791,-51.287779 l -0.29917,-0.847991 -7.980631,11.406742 c -4.389346,6.27371 -7.98063,11.601354 -7.98063,11.839211 0,0.237857 4.522188,6.933307 10.049301,14.878777 l 10.04931,14.44632 7.69339,0.008 c 7.22446,0.007 7.68259,-0.0197 7.51634,-0.4431 l 0,-1e-5 z M 82.179662,98.991131 87.31838,97.510304 87.255858,95.970831 C 87.221471,95.12412 86.736873,85.850796 86.178972,75.363443 85.62107,64.876091 85.134063,55.550209 85.096731,54.63926 l -0.06788,-1.656267 -7.601398,-5.011154 c -4.180769,-2.756135 -7.719429,-5.056673 -7.86369,-5.112308 -0.232809,-0.08978 -10.99522,39.520799 -11.053107,40.680479 -0.02239,0.448474 17.758047,16.92071 18.27261,16.92819 0.141721,0.002 2.570097,-0.662616 5.396392,-1.477069 z M 121.58587,76.200886 c -0.26414,-0.443095 -18.49455,-28.552689 -24.312457,-37.487551 -2.605478,-4.001368 -4.766808,-7.245638 -4.802957,-7.209488 -0.105946,0.105944 14.825634,40.207511 15.039394,40.391146 0.28872,0.248019 10.06004,3.571335 12.09408,4.113304 2.18601,0.582463 2.21611,0.585388 1.98194,0.192589 z"
     id="path4361"
     inkscape:connector-curvature="0" />
  <path
     style="fill:#ff0000;fill-opacity:0"
     d="m 75.108386,145.27724 c -3.973047,-1.04801 -7.006332,-1.9809 -7.253952,-2.23097 -0.437281,-0.4416 -27.699036,-43.826983 -27.949702,-44.480209 -0.19256,-0.501803 27.3876,-58.330682 28.224527,-59.179956 0.366357,-0.371763 5.164192,-4.122607 10.661857,-8.33521 8.028344,-6.151743 10.107729,-7.62976 10.564655,-7.509312 0.40683,0.107242 5.734394,7.939109 18.700959,27.491628 9.97263,15.037918 18.1765,27.533745 18.23081,27.768507 0.0543,0.234765 1.03438,8.253706 2.1779,17.819872 l 2.07914,17.39303 -0.93131,7.71752 c -0.51221,4.24463 -1.06181,7.87476 -1.22131,8.06695 -0.38752,0.46694 -18.24056,12.58826 -19.03468,12.92361 -0.61238,0.25859 -26.361202,4.42559 -27.061401,4.37941 -0.197515,-0.013 -3.431887,-0.83422 -7.187493,-1.82487 z m -3.424577,-9.89528 c 1.670937,-1.92404 3.070682,-3.58726 3.110547,-3.69605 0.09342,-0.25494 -16.31173,-15.58438 -21.781559,-20.35331 -2.302966,-2.00786 -4.18721,-3.59873 -4.18721,-3.53526 0,0.31398 19.39248,31.08287 19.590376,31.08287 0.126379,0 1.596912,-1.57421 3.267846,-3.49825 z m 54.062211,-7.77501 c -0.27769,-0.69804 -19.10824,-51.426011 -19.23206,-51.809606 -0.12934,-0.400679 -16.036619,22.273871 -16.05879,22.890515 -0.0083,0.23177 4.507037,6.929901 10.03415,14.884741 l 10.04931,14.46335 7.69339,0.011 c 7.22604,0.0103 7.68248,-0.0164 7.514,-0.43997 l 0,-1e-5 z m -43.747271,-28.594712 5.215479,-1.488787 0.0048,-1.288373 c 0.0061,-1.645287 -2.023887,-40.272517 -2.208935,-42.031759 l -0.138761,-1.319188 -7.726135,-5.09096 c -4.249365,-2.800029 -7.764225,-5.047256 -7.810792,-4.993838 -0.127884,0.146695 -10.693815,39.975239 -10.775294,40.617735 -0.05588,0.440634 1.822139,2.287601 8.947884,8.799932 4.960234,4.533237 9.076585,8.25165 9.147445,8.26314 0.07086,0.0115 2.475804,-0.64907 5.344316,-1.467902 z M 121.42807,75.943211 C 121.21981,75.624339 117.6302,70.087558 113.45116,63.639253 103.32835,48.019621 92.635501,31.606971 92.482306,31.453778 c -0.166491,-0.166492 0.581901,1.877027 8.245384,22.514387 3.62955,9.774184 6.68409,17.843308 6.78785,17.931383 0.48695,0.413321 12.92701,4.481073 14.06831,4.60017 0.12259,0.01281 0.0525,-0.237635 -0.15578,-0.556507 z"
     id="path4365"
     inkscape:connector-curvature="0" />
  <path
     style="fill:#ffb380;fill-opacity:0.6878981"
     d="m 67.445938,92.505825 c -4.976012,-4.531209 -9.110139,-8.340241 -9.186947,-8.46452 -0.07681,-0.124276 2.327918,-9.490685 5.343837,-20.814242 4.279867,-16.06917 5.569387,-20.581997 5.87483,-20.559652 0.280505,0.02052 10.850066,6.807517 15.626017,10.033881 0.141716,0.09573 2.384917,42.504938 2.314634,43.759721 l -0.07038,1.256632 -5.15349,1.507481 c -2.83442,0.829114 -5.276725,1.510134 -5.427345,1.513364 -0.150621,0.003 -4.345139,-3.701459 -9.321152,-8.232665 z"
     id="path4391"
     inkscape:connector-curvature="0" />
  <path
     style="fill:#ffb380;fill-opacity:0.6878981"
     d="M 100.71986,114.33671 C 95.36819,106.64835 90.721621,99.999922 90.394146,99.562429 l -0.595408,-0.795441 8.266268,-11.830609 c 4.546444,-6.506836 8.295514,-11.860153 8.331254,-11.896261 0.0724,-0.07315 19.73168,52.838052 19.73168,53.106062 0,0.0932 -3.5275,0.16937 -7.83889,0.16937 l -7.83889,0 -9.7303,-13.97884 z"
     id="path4393"
     inkscape:connector-curvature="0" />
  <path
     style="fill:#ffb380;fill-opacity:0.6878981"
     d="m 67.762035,138.87193 c -0.09141,-0.288 -0.452351,-0.80979 -0.8021,-1.15954 -0.349749,-0.34974 -0.563203,-0.6359 -0.474342,-0.6359 0.153352,0 -0.851407,-1.78907 -1.157703,-2.0614 -0.0797,-0.0709 -0.373083,-0.56366 -0.651966,-1.09512 -0.278883,-0.53145 -0.596645,-0.96627 -0.706138,-0.96627 -0.109493,0 -0.199078,-0.13871 -0.199078,-0.30825 0,-0.26271 -1.147486,-2.13555 -1.547789,-2.52617 -0.07262,-0.0709 -0.360206,-0.56367 -0.639089,-1.09512 -0.278883,-0.53145 -0.596645,-0.96628 -0.706138,-0.96628 -0.109493,0 -0.201188,-0.14494 -0.203767,-0.32209 -0.0055,-0.37899 -1.288613,-2.38965 -2.055432,-3.22093 -0.294142,-0.31888 -0.463279,-0.57977 -0.375861,-0.57977 0.151497,0 -0.85705,-1.79175 -1.160326,-2.0614 -0.0797,-0.0709 -0.373083,-0.56366 -0.651966,-1.09511 -0.278883,-0.53146 -0.596645,-0.96628 -0.706138,-0.96628 -0.109493,0 -0.199078,-0.13871 -0.199078,-0.30825 0,-0.29866 -1.127256,-2.08844 -1.698952,-2.69748 -0.154957,-0.16508 -0.42992,-0.65789 -0.611028,-1.09512 -0.181108,-0.43723 -0.431174,-0.79497 -0.555701,-0.79497 -0.124527,0 -0.228523,-0.14494 -0.231102,-0.32209 -0.0055,-0.37899 -1.288613,-2.38965 -2.055432,-3.22093 -0.294142,-0.31888 -0.46328,-0.57977 -0.375861,-0.57977 0.151496,0 -0.85705,-1.79175 -1.160326,-2.0614 -0.0797,-0.0709 -0.373083,-0.56366 -0.651966,-1.09511 -0.278883,-0.53146 -0.583121,-0.96628 -0.676085,-0.96628 -0.09296,0 -0.229671,-0.23191 -0.303792,-0.51535 -0.07412,-0.28345 -0.0861,-0.51535 -0.02661,-0.51535 0.05949,0 0.657386,0.51868 1.328668,1.15262 3.249132,3.0684 3.722998,3.48552 3.959704,3.48552 0.139964,0 0.182816,0.11595 0.09523,0.25767 -0.08759,0.14172 -0.05044,0.25768 0.08256,0.25768 0.132996,0 0.701344,0.43482 1.262997,0.96628 0.561652,0.53145 2.630267,2.4157 4.596923,4.18721 5.980908,5.38744 16.470562,15.26308 16.54921,15.5805 0.111168,0.44865 -6.432853,7.86788 -6.93975,7.86788 -0.102068,0 -0.260365,-0.23564 -0.351771,-0.52363 z"
     id="path4395"
     inkscape:connector-curvature="0" />
  <path
     style="fill:#ffb380;fill-opacity:0.6878981"
     d="m 122.15546,77.102746 c -0.1063,-0.10629 -0.29955,-0.20775 -0.42946,-0.225465 -0.12991,-0.0177 -0.29418,-0.0612 -0.36504,-0.09663 -0.0709,-0.03543 -0.24479,-0.09341 -0.38651,-0.128837 -0.14172,-0.03543 -0.28666,-0.08753 -0.3221,-0.115776 -0.0354,-0.02825 -0.35169,-0.104015 -0.7028,-0.168375 -0.62662,-0.114861 -12.67509,-4.164411 -12.76367,-4.289932 -0.13582,-0.192444 -15.393336,-41.492034 -15.511789,-41.987852 -0.07785,-0.325875 3.239644,4.625409 7.372213,11.002853 4.132566,6.377444 7.684226,11.799597 7.892576,12.049229 0.20835,0.249632 0.37882,0.568504 0.37882,0.708605 0,0.140101 0.11595,0.254729 0.25767,0.254729 0.14172,0 0.25768,0.116633 0.25768,0.259184 0,0.330062 4.36033,7.020636 4.74046,7.27385 0.16486,0.109821 0.176,0.192622 0.0265,0.197201 -0.14172,0.0043 -0.0838,0.11784 0.12883,0.252222 0.21259,0.134382 0.38652,0.352488 0.38652,0.484683 0,0.132195 0.43368,0.861136 0.96373,1.619866 1.38899,1.988219 3.55331,5.276999 4.55367,6.919511 0.47474,0.779466 0.93511,1.475187 1.02305,1.546047 0.088,0.07086 0.31581,0.43193 0.50636,0.802375 0.19055,0.370444 0.60003,0.950211 0.90995,1.288373 0.79753,0.870192 1.79324,2.547393 1.51232,2.547393 -0.12966,0 -0.32271,-0.08697 -0.429,-0.193256 z"
     id="path4397"
     inkscape:connector-curvature="0" />
  <path
     style="fill:#ff0000;fill-opacity:0"
     d="m 75.108386,145.27724 c -3.973047,-1.04801 -7.006332,-1.9809 -7.253952,-2.23097 -0.437281,-0.4416 -27.699036,-43.826983 -27.949702,-44.480209 -0.19256,-0.501803 27.3876,-58.330682 28.224527,-59.179956 0.366357,-0.371763 5.164192,-4.122607 10.661857,-8.33521 8.028344,-6.151743 10.107729,-7.62976 10.564655,-7.509312 0.40683,0.107242 5.734394,7.939109 18.700959,27.491628 9.97263,15.037918 18.1765,27.533745 18.23081,27.768507 0.0543,0.234765 1.03438,8.253706 2.1779,17.819872 l 2.07914,17.39303 -0.93131,7.71752 c -0.51221,4.24463 -1.06181,7.87476 -1.22131,8.06695 -0.38752,0.46694 -18.24056,12.58826 -19.03468,12.92361 -0.61238,0.25859 -26.361202,4.42559 -27.061401,4.37941 -0.197515,-0.013 -3.431887,-0.83422 -7.187493,-1.82487 z m -6.044577,-6.71912 0.751376,-0.83745 -0.74546,0.69234 -0.74546,0.69233 -9.749339,-15.59736 c -5.362137,-8.57854 -9.749339,-15.65118 -9.749339,-15.71695 0,-0.11744 5.249588,4.39947 6.892793,5.93078 0.460593,0.42923 0.837442,0.71758 0.837442,0.64078 0,-0.16273 -8.687916,-8.23702 -9.18868,-8.53968 -0.498815,-0.30148 -0.178957,0.39889 1.051709,2.30284 0.578007,0.89423 1.630689,2.55698 2.339294,3.69499 0.708605,1.13801 1.984094,3.17224 2.83442,4.5205 0.850326,1.34826 2.125815,3.38635 2.834419,4.52907 0.708605,1.14273 1.787372,2.83355 2.397259,3.75739 0.609888,0.92384 1.308566,2.04458 1.552617,2.49053 0.244052,0.44595 1.020542,1.71948 1.725533,2.83007 3.216436,5.06695 3.924129,6.19013 4.889246,7.75976 0.566884,0.92195 1.09597,1.6788 1.175746,1.68189 0.07978,0.003 0.483165,-0.37124 0.896424,-0.83183 z M 117.04491,128.1237 c -1.24006,-0.0472 -3.26924,-0.0472 -4.5093,0 -1.24006,0.0472 -0.22547,0.0859 2.25465,0.0859 2.48012,0 3.49471,-0.0386 2.25465,-0.0859 z m 5.39629,-51.178022 c -0.0739,-0.192678 -2.18925,-3.468366 -4.70069,-7.279304 -6.41038,-9.727295 -6.86847,-10.407587 -7.00813,-10.407587 -0.0683,0 0.0854,0.318872 0.34147,0.708605 0.83359,1.268518 10.30385,15.901305 10.52409,16.261098 0.15904,0.259816 0.0899,0.312634 -0.26913,0.205493 -1.53082,-0.456859 -1.81026,-0.352097 -0.4832,0.181158 0.85033,0.341687 1.58744,0.634663 1.63803,0.651056 0.0506,0.01639 0.0315,-0.12784 -0.0424,-0.320519 z M 109.23727,56.729441 c -0.23575,-0.399094 -0.66191,-1.00785 -0.94701,-1.352791 l -0.51837,-0.627167 0.41709,0.708605 c 0.73282,1.245008 1.24612,1.996977 1.36316,1.996977 0.0626,0 -0.0791,-0.32653 -0.31487,-0.725624 z"
     id="path4401"
     inkscape:connector-curvature="0" />
  <path
     style="fill:#f00000;fill-opacity:0.6242038"
     d="m 75.108386,145.27724 c -3.973047,-1.04801 -7.006332,-1.9809 -7.253952,-2.23097 -0.437281,-0.4416 -27.699036,-43.826983 -27.949702,-44.480209 -0.19256,-0.501803 27.3876,-58.330682 28.224527,-59.179956 0.366357,-0.371763 5.164192,-4.122607 10.661857,-8.33521 8.028344,-6.151743 10.107729,-7.62976 10.564655,-7.509312 0.40683,0.107242 5.734394,7.939109 18.700959,27.491628 9.97263,15.037918 18.1765,27.533745 18.23081,27.768507 0.0543,0.234765 1.03438,8.253706 2.1779,17.819872 l 2.07914,17.39303 -0.93131,7.71752 c -0.51221,4.24463 -1.06181,7.87476 -1.22131,8.06695 -0.38752,0.46694 -18.24056,12.58826 -19.03468,12.92361 -0.61238,0.25859 -26.361202,4.42559 -27.061401,4.37941 -0.197515,-0.013 -3.431887,-0.83422 -7.187493,-1.82487 z m -4.101031,-8.78052 c 3.333339,-3.69076 3.972513,-4.62394 3.619244,-5.28403 -0.286364,-0.53508 -8.203588,-8.0303 -16.267056,-15.39998 -5.124546,-4.68363 -6.276522,-5.747 -9.341773,-8.62321 -0.957207,-0.89818 -1.811862,-1.56156 -1.899234,-1.47419 -0.08737,0.0874 0.359582,0.94688 0.993233,1.91001 0.63365,0.96314 1.33269,2.09902 1.553421,2.52418 0.220731,0.42516 0.904806,1.54354 1.520166,2.48529 1.236432,1.89223 3.039151,4.74002 5.359113,8.46588 2.717211,4.36384 3.978333,6.37508 5.445422,8.68435 0.792063,1.24675 2.088888,3.3104 2.881833,4.58589 2.690948,4.32851 3.150366,5.02061 3.334067,5.02263 0.1009,0.001 1.361604,-1.30246 2.801564,-2.89682 z m 54.748875,-8.49622 c 0.10222,-0.10242 -0.13308,-1.08803 -0.52289,-2.19024 -2.24962,-6.3609 -16.09643,-43.579837 -18.13101,-48.734456 l -0.748,-1.89508 -0.64495,0.864382 c -0.35473,0.475412 -4.08052,5.780366 -8.279551,11.788786 -4.897848,7.008373 -7.554145,11.026367 -7.410165,11.208841 0.213922,0.27112 15.017686,21.471817 18.693576,26.771367 l 1.75015,2.5232 7.5535,-0.0753 c 4.15442,-0.0414 7.63713,-0.15909 7.73934,-0.26151 z m -43.175283,-28.905242 4.509304,-1.319219 -0.04518,-5.02211 c -0.03958,-4.399666 -0.207451,-8.6498 -0.737766,-18.678858 -0.316084,-5.977639 -0.900778,-15.903671 -1.077661,-18.29489 -0.104835,-1.41721 -0.19205,-2.692698 -0.193815,-2.834419 -0.0018,-0.141721 -2.091217,-1.639545 -4.643231,-3.328498 -5.08477,-3.365166 -11.310952,-7.220284 -11.09392,-6.86912 0.07555,0.122251 -0.04216,0.727424 -0.261584,1.344829 -0.554435,1.560028 -2.402175,7.941752 -3.943412,13.619767 -2.059993,7.589143 -6.734135,25.9087 -6.734135,26.393373 0,0.08344 9.696856,8.954083 13.1414,12.021698 4.84645,4.316119 5.22846,4.602189 5.926514,4.438099 0.354302,-0.0833 2.673373,-0.745082 5.15349,-1.470652 z M 122.35254,76.56934 c -0.26193,-0.399664 -2.44744,-3.708359 -4.8567,-7.352655 -2.40925,-3.644296 -5.56803,-8.448242 -7.0195,-10.675437 -1.45148,-2.227191 -2.72863,-4.165393 -2.83812,-4.307114 -0.10949,-0.141721 -1.51803,-2.286861 -3.13007,-4.766978 -5.777312,-8.888314 -12.226299,-18.547728 -12.320366,-18.453663 -0.115691,0.115693 3.395472,9.805099 9.721736,26.828084 2.58072,6.944328 4.81235,12.994945 4.95917,13.445819 0.26298,0.807567 0.38046,0.85801 7.89496,3.389878 4.1954,1.413561 7.72636,2.581051 7.84657,2.594419 0.12021,0.01337 0.004,-0.302687 -0.25768,-0.702353 z"
     id="path4407"
     inkscape:connector-curvature="0" />
  <path
     style="fill:#ffa500;fill-opacity:0"
     d="M 74.4642,98.635002 C 64.878872,90.079363 58.349078,83.914622 58.459488,83.525041 c 0.06724,-0.237248 1.354731,-5.185457 2.861094,-10.996017 1.506364,-5.81056 3.793598,-14.391121 5.082743,-19.067913 1.289145,-4.676793 2.468547,-8.998164 2.620893,-9.603047 0.171974,-0.682817 0.396006,-1.054118 0.590898,-0.979331 0.412402,0.158254 9.544484,6.072149 12.836993,8.31318 l 2.576746,1.753849 0.429396,7.601397 c 1.040812,18.424962 1.526727,29.52919 1.453346,33.212059 l -0.07902,3.966 -4.748395,1.380746 c -2.611618,0.759408 -4.930689,1.378096 -5.15349,1.374866 -0.222803,-0.003 -1.332723,-0.833855 -2.466491,-1.845828 z"
     id="path4415"
     inkscape:connector-curvature="0" />
  <path
     style="fill:#ffa500;fill-opacity:0.41401277"
     d="m 76.525596,145.42286 c -3.401304,-0.90569 -6.50306,-1.6714 -6.892793,-1.70158 -0.389733,-0.0302 -0.708605,-0.13359 -0.708605,-0.22981 0,-0.0962 -0.288928,-0.24744 -0.642063,-0.33608 -0.432386,-0.10852 -0.847808,-0.56716 -1.272085,-1.40443 -0.447315,-0.88273 -23.484867,-37.76651 -26.747784,-42.823956 -0.334923,-0.519124 0.81847,-3.319564 4.186359,-10.164486 3.512636,-7.139107 18.384347,-38.367577 19.695033,-41.356758 0.590343,-1.34635 1.240736,-2.750546 1.445317,-3.120437 0.204581,-0.369891 0.878871,-1.64538 1.498421,-2.83442 0.61955,-1.189039 1.228443,-2.200587 1.353093,-2.247882 0.45243,-0.171664 17.387517,-13.258475 18.327668,-14.162947 0.531454,-0.511285 0.96628,-0.840204 0.96628,-0.730931 0,0.109273 0.36916,-0.06419 0.820358,-0.385469 0.516179,-0.367552 0.85632,-0.476267 0.917342,-0.293199 0.102464,0.307396 2.618718,3.71432 2.905793,3.934348 0.09245,0.07086 0.500679,0.708605 0.907169,1.41721 0.892296,1.555473 29.296851,44.390718 31.012351,46.767922 0.66478,0.921187 1.34594,1.964768 1.5137,2.319071 0.16776,0.354302 1.25298,8.529026 2.4116,18.166052 l 2.10659,17.521862 -0.68904,6.18419 c -0.37898,3.40131 -0.70966,6.68443 -0.73485,7.29584 -0.0252,0.6114 -0.13864,1.16903 -0.25212,1.23916 -0.11348,0.0701 -0.21142,0.38157 -0.21765,0.69207 -0.009,0.44929 -1.72829,1.72206 -8.42016,6.2334 -4.62485,3.11786 -8.76509,5.97113 -9.20053,6.34058 -0.93665,0.79473 -2.14582,1.22331 -3.95018,1.40014 -1.57011,0.15387 -23.212502,3.61217 -23.768514,3.79804 -0.212582,0.0711 -3.169397,-0.61181 -6.5707,-1.5175 z m 18.810239,-2.42257 c 7.086045,-1.13476 13.015045,-2.11129 13.175535,-2.17007 0.1605,-0.0588 3.80148,-2.49279 8.09108,-5.40891 l 7.79926,-5.30203 -8.00947,0 c -6.78737,0 -10.16466,0.15595 -22.134332,1.02208 -7.768678,0.56215 -14.852823,1.09352 -15.742544,1.18082 l -1.617673,0.15873 -3.869047,4.48802 c -2.127974,2.46842 -3.835045,4.49865 -3.79349,4.51165 0.159503,0.0499 12.966029,3.52821 13.088118,3.55483 0.07086,0.0155 5.926514,-0.90035 13.012563,-2.03512 z M 71.62978,135.75836 c 1.842373,-2.12501 3.382895,-3.95668 3.423384,-4.07036 0.04049,-0.11368 -2.394536,-2.52139 -5.411165,-5.35045 -6.298788,-5.90714 -15.754427,-14.67321 -17.461466,-16.18805 -0.638808,-0.56688 -2.312049,-2.13225 -3.718313,-3.4786 -2.730253,-2.61393 -2.750609,-2.47541 -0.187727,1.27753 0.625006,0.91522 1.270131,1.9588 1.43361,2.31907 0.552394,1.21733 1.485792,2.58758 1.762626,2.58758 0.151343,0 0.199616,0.0756 0.107274,0.1679 -0.09234,0.0923 0.236193,0.73035 0.730078,1.4178 0.493885,0.68746 0.897972,1.31329 0.897972,1.39075 0,0.0774 0.44943,0.80189 0.998733,1.60987 1.566639,2.30437 2.929753,4.45644 3.635462,5.73962 0.356473,0.64817 1.103161,1.86568 1.659307,2.70558 0.556146,0.8399 1.261624,1.93293 1.567728,2.42895 0.306104,0.49603 0.966288,1.53961 1.467076,2.31907 0.500787,0.77947 1.459551,2.2722 2.130584,3.31719 0.671034,1.04499 1.372517,2.26486 1.558852,2.71082 0.186335,0.44596 0.569839,1.01993 0.852235,1.2755 0.282396,0.25556 0.584061,0.74601 0.670369,1.08988 0.08631,0.34387 0.241675,0.6182 0.345265,0.60962 0.103591,-0.009 1.695744,-1.75426 3.538116,-3.87927 z m 21.773496,-6.43551 c 8.007234,-0.58274 14.596634,-1.09545 14.643104,-1.13938 0.0756,-0.0715 -19.303421,-28.0223 -19.803466,-28.563023 -0.173761,-0.187893 -10.960281,2.728913 -11.282219,3.050853 -0.06085,0.0609 0.136969,6.00064 0.43959,13.19953 0.302623,7.1989 0.548491,13.40778 0.546373,13.79752 -0.0027,0.50352 0.126649,0.70938 0.447078,0.7113 0.248012,0.002 7.002305,-0.47407 15.00954,-1.0568 z m -17.377223,-1.7159 c -0.08165,-1.09834 -0.323874,-6.6931 -0.53828,-12.4328 -0.214406,-5.7397 -0.452023,-11.13565 -0.528037,-11.991 l -0.138204,-1.55519 -8.915731,-8.107606 c -4.90365,-4.459181 -9.070751,-8.107605 -9.260222,-8.107605 -0.189472,0 -3.481266,2.894605 -7.315099,6.432455 l -6.970604,6.432455 2.137738,1.979081 c 1.175757,1.08849 8.689114,8.13021 16.696349,15.64827 8.007235,7.51806 14.653544,13.67588 14.769573,13.68405 0.11603,0.008 0.144163,-0.88377 0.06252,-1.98211 z m 50.101887,0.49536 c 0,-0.11729 -0.27866,-0.89998 -0.61923,-1.73931 -0.89071,-2.19508 -18.1389,-48.72604 -18.69003,-50.42066 l -0.31454,-0.967148 -3.36834,4.832266 c -1.85259,2.657747 -3.466813,4.870919 -3.587173,4.918158 -0.120359,0.04724 -0.218837,0.222355 -0.218837,0.389145 0,0.166791 -0.289884,0.615881 -0.644187,0.997979 -0.354302,0.3821 -0.644186,0.815741 -0.644186,0.963649 0,0.147905 -0.115953,0.268919 -0.257674,0.268919 -0.141721,0 -0.257675,0.164267 -0.257675,0.36504 0,0.200769 -0.08696,0.403688 -0.193256,0.45093 -0.106291,0.04724 -0.819526,1.013519 -1.584966,2.147287 -0.765443,1.133768 -2.419569,3.46768 -3.675838,5.186475 -1.51821,2.077176 -2.230345,3.265225 -2.123745,3.543024 0.08821,0.229869 0.263928,0.417946 0.390487,0.417946 0.126557,0 0.230106,0.177568 0.230106,0.394597 0,0.217033 0.173931,0.461343 0.386512,0.542913 0.212582,0.0816 0.386512,0.30985 0.386512,0.50727 0,0.19742 0.115953,0.35894 0.257674,0.35894 0.141721,0 0.257675,0.17393 0.257675,0.38651 0,0.21258 0.115953,0.38651 0.257674,0.38651 0.141721,0 0.257675,0.17757 0.257675,0.3946 0,0.21703 0.17393,0.46135 0.386512,0.54292 0.212581,0.0816 0.386511,0.30984 0.386511,0.50726 0,0.19742 0.115954,0.35895 0.257675,0.35895 0.141721,0 0.257674,0.17393 0.257674,0.38651 0,0.21258 0.115954,0.38651 0.257675,0.38651 0.141721,0 0.257674,0.17757 0.257674,0.3946 0,0.21703 0.173266,0.46109 0.385033,0.54235 0.211767,0.0813 0.320372,0.25237 0.241341,0.38024 -0.07903,0.12787 0.03759,0.30206 0.259156,0.38708 0.221564,0.085 0.402843,0.31611 0.402843,0.51353 0,0.19742 0.115954,0.35894 0.257674,0.35894 0.141721,0 0.257675,0.17757 0.257675,0.3946 0,0.21703 0.173265,0.46109 0.385033,0.54235 0.211767,0.0813 0.320372,0.25237 0.24134,0.38025 -0.07903,0.12787 0.03759,0.30205 0.259156,0.38708 0.221564,0.085 0.402844,0.31611 0.402844,0.51353 0,0.19741 0.115953,0.35894 0.257674,0.35894 0.141721,0 0.257675,0.157 0.257675,0.34889 0,0.19188 0.289883,0.66167 0.644186,1.04397 0.354302,0.3823 0.644186,0.80507 0.644186,0.93949 0,0.13441 0.115954,0.24439 0.257675,0.24439 0.141721,0 0.257674,0.157 0.257674,0.34889 0,0.19189 0.289884,0.66168 0.644186,1.04397 0.3543,0.3823 0.64419,0.80507 0.64419,0.93949 0,0.13442 0.11595,0.2444 0.25767,0.2444 0.14172,0 0.25768,0.17393 0.25768,0.38651 0,0.21258 0.11595,0.38651 0.25767,0.38651 0.14172,0 0.25767,0.17757 0.25767,0.3946 0,0.21703 0.17393,0.46134 0.38652,0.54292 0.21258,0.0816 0.38651,0.30984 0.38651,0.50726 0,0.19742 0.11595,0.35895 0.25767,0.35895 0.14172,0 0.25768,0.17393 0.25768,0.38651 0,0.21258 0.11595,0.38651 0.25767,0.38651 0.14172,0 0.25768,0.14613 0.25768,0.32473 0,0.17859 0.28988,0.63735 0.64418,1.01945 0.3543,0.3821 0.64419,0.81574 0.64419,0.96364 0,0.14791 0.11595,0.26892 0.25767,0.26892 0.14172,0 0.25768,0.17393 0.25768,0.38652 0,0.21258 0.11595,0.38651 0.25767,0.38651 0.14172,0 0.25768,0.17757 0.25768,0.39459 0,0.21704 0.17393,0.46135 0.38651,0.54292 0.21258,0.0816 0.38651,0.30985 0.38651,0.50727 0,0.19741 0.11595,0.35894 0.25767,0.35894 0.14173,0 0.25768,0.12423 0.25768,0.27608 0,0.15184 0.15285,0.42893 0.33967,0.61575 0.18683,0.18683 0.90301,1.16415 1.59154,2.17183 l 1.25185,1.83215 7.81359,0 c 4.29747,0 7.81359,-0.096 7.81359,-0.21324 z m 1.6745,-8.65532 0.65538,-5.38995 -1.93281,-16.254705 c -1.06305,-8.940087 -2.0221,-16.645665 -2.13122,-17.123505 l -0.19841,-0.868803 -7.83925,-2.672574 c -4.31158,-1.469918 -7.89485,-2.616966 -7.96282,-2.548999 -0.068,0.06796 4.09629,11.492105 9.2539,25.386973 5.1576,13.894873 9.405,25.172983 9.43865,25.062463 0.0337,-0.11052 0.35612,-2.62642 0.71658,-5.5909 z M 82.015699,99.219995 c 2.877835,-0.830969 5.304109,-1.582536 5.391715,-1.670143 0.162668,-0.162667 -0.05976,-5.020661 -0.950929,-20.769199 C 86.179807,71.89128 85.83376,65.107998 85.687491,61.706695 85.541225,58.305391 85.351752,54.863996 85.266441,54.059147 l -0.15511,-1.463356 -3.004495,-1.870496 c -1.652472,-1.02877 -5.183929,-3.312105 -7.847683,-5.074075 -2.663757,-1.761971 -4.903384,-3.143389 -4.976955,-3.069818 -0.176492,0.176491 -1.703195,5.734063 -5.536991,20.155991 -1.732996,6.519165 -3.706683,13.94019 -4.385971,16.491168 l -1.23507,4.638141 2.093916,1.932559 c 6.461055,5.963165 16.32544,14.921069 16.436351,14.925939 0.07086,0.003 2.483431,-0.67423 5.361266,-1.505205 z M 97.629692,84.450062 c 4.336358,-6.198317 7.886198,-11.358249 7.888548,-11.466516 0.008,-0.363578 -16.099233,-43.615002 -16.242505,-43.615002 -0.07786,0 -0.614747,5.536781 -1.19309,12.303958 l -1.051533,12.303958 1.113406,20.098611 c 0.612374,11.054236 1.118483,20.556628 1.124687,21.116426 0.0068,0.614388 0.103418,0.920787 0.24374,0.773023 0.127853,-0.134635 3.780389,-5.316142 8.116747,-11.514458 z m -47.386896,3.95478 c 2.83442,-2.605978 5.419861,-4.991137 5.745426,-5.300351 0.480644,-0.456507 1.366248,-3.465606 4.710313,-16.004656 2.265108,-8.493346 4.226776,-15.83842 4.359263,-16.322386 0.132487,-0.48397 0.147003,-0.773854 0.03226,-0.644187 -0.168696,0.190633 -8.34421,17.272894 -19.276527,40.277182 -0.972029,2.045389 -1.453707,3.305158 -1.182274,3.092094 0.251928,-0.197755 2.777121,-2.491717 5.61154,-5.097696 z M 122.49228,76.716235 c -0.16722,-0.318873 -0.63511,-1.002292 -1.03977,-1.518708 -0.40465,-0.516418 -0.73574,-1.01407 -0.73574,-1.105893 0,-0.09182 -0.2319,-0.415871 -0.51535,-0.72011 -0.28344,-0.304241 -0.51534,-0.705229 -0.51534,-0.891087 0,-0.185858 -0.11596,-0.337925 -0.25768,-0.337925 -0.14172,0 -0.25767,-0.17393 -0.25767,-0.386512 0,-0.212581 -0.11596,-0.386511 -0.25768,-0.386511 -0.14172,0 -0.25767,-0.164268 -0.25767,-0.36504 0,-0.20077 -0.087,-0.403688 -0.19326,-0.45093 -0.21676,-0.09634 -3.15651,-4.507722 -3.15651,-4.736656 0,-0.225138 -3.70983,-5.644483 -3.93114,-5.742642 -0.10718,-0.04754 -0.12882,-0.193294 -0.0481,-0.323912 0.0807,-0.130618 -0.0338,-0.306795 -0.25459,-0.391506 -0.22075,-0.08471 -0.3367,-0.258638 -0.25767,-0.386511 0.079,-0.127871 -0.0369,-0.301802 -0.25768,-0.386512 -0.22075,-0.08471 -0.3367,-0.258638 -0.25767,-0.386512 0.079,-0.127871 -0.0369,-0.301801 -0.25768,-0.386512 -0.22075,-0.08471 -0.34806,-0.240261 -0.28291,-0.345668 0.0651,-0.105409 -0.0897,-0.415105 -0.34418,-0.68822 -0.25444,-0.273112 -0.67842,-0.841451 -0.94216,-1.262976 -0.26375,-0.421524 -1.71575,-2.621665 -3.22667,-4.889201 -1.51092,-2.267536 -4.68975,-7.137584 -7.064073,-10.822329 -5.43848,-8.440061 -6.41845,-9.911777 -6.527408,-9.802821 -0.0482,0.0482 0.660448,2.041646 1.574775,4.42988 0.914325,2.388234 4.121463,11.009571 7.126976,19.158527 3.00551,8.148956 5.53063,14.990214 5.61139,15.202796 0.0807,0.212581 0.17133,0.473476 0.20129,0.579767 0.03,0.106291 0.0776,0.222244 0.10582,0.257675 0.0282,0.03543 0.10364,0.34927 0.16755,0.697419 0.0639,0.348152 0.23913,0.708976 0.38937,0.801832 0.15025,0.09286 0.26328,0.242835 0.25117,0.333278 -0.0121,0.09045 -0.022,0.268152 -0.022,0.394904 0,0.126751 2.52199,1.063534 5.60442,2.081745 3.08243,1.018209 5.77835,1.919083 5.99093,2.00194 0.21258,0.08286 0.47348,0.175162 0.57977,0.205117 0.10629,0.02996 0.25123,0.08345 0.32209,0.118883 0.0709,0.03543 0.2158,0.08863 0.32209,0.118219 0.10629,0.02959 0.48314,0.172379 0.83745,0.317305 1.9137,0.782803 2.17912,0.785106 1.7755,0.01541 l 0,-2e-6 z M 86.306054,40.049393 c 0.499592,-5.803606 0.976383,-11.057478 1.059537,-11.675271 0.09618,-0.714533 0.05546,-1.089578 -0.111898,-1.030698 -0.511514,0.179964 -17.306391,13.183422 -17.184606,13.305207 0.268891,0.268891 15.212943,10.06845 15.268848,10.012545 0.03287,-0.03287 0.46853,-4.808177 0.968119,-10.611783 z"
     id="path4443"
     inkscape:connector-curvature="0" />
  <path
     style="fill:#ffa500;fill-opacity:0.41401277"
     d="m 77.533938,45.493477 -7.494917,-4.958155 6.076896,-4.617109 c 3.342292,-2.539411 7.162253,-5.464676 8.488801,-6.50059 1.326549,-1.035915 2.461888,-1.833499 2.522977,-1.77241 0.156118,0.156118 -1.795013,22.857777 -1.96212,22.82953 -0.0752,-0.01271 -3.509433,-2.254281 -7.631637,-4.981266 z"
     id="path4445"
     inkscape:connector-curvature="0" />
  <path
     style="fill:#ffa500;fill-opacity:0.41401277"
     d="M 89.439087,94.787012 C 89.364828,94.307959 88.827024,84.813656 88.243965,73.688559 L 87.18386,53.461111 88.10287,42.767619 c 0.505455,-5.881421 0.990161,-11.331237 1.077123,-12.110702 l 0.158113,-1.41721 0.77067,2.190233 c 0.823961,2.341684 11.994184,32.536818 14.133704,38.205964 1.2746,3.377332 1.27917,3.400357 0.80367,4.046749 -0.26302,0.357552 -3.7596,5.34621 -7.770181,11.08591 -4.010576,5.7397 -7.384187,10.537885 -7.496912,10.662635 -0.112725,0.124751 -0.265711,-0.165133 -0.33997,-0.644186 z"
     id="path4447"
     inkscape:connector-curvature="0" />
  <path
     style="fill:#ffa500;fill-opacity:0.41401277"
     d="M 74.706252,128.35505 C 73.056483,126.87078 45.501928,101.07986 43.977225,99.592842 l -1.369756,-1.335899 6.963558,-6.486515 c 3.829957,-3.567584 7.064078,-6.486516 7.186935,-6.486516 0.122857,0 0.504484,0.304414 0.84806,0.676476 0.343576,0.372062 4.364185,4.09627 8.934687,8.276018 7.787462,7.121674 8.310003,7.654604 8.310003,8.475284 0,0.48166 0.238364,6.50817 0.529696,13.39225 0.291332,6.88408 0.494251,12.6686 0.45093,12.85449 -0.05035,0.21606 -0.456225,-0.002 -1.125086,-0.60338 z"
     id="path4449"
     inkscape:connector-curvature="0" />
  <path
     style="fill:#ffa500;fill-opacity:0.41401277"
     d="m 44.485306,93.400659 c 0.05693,-0.141721 1.004646,-2.112931 2.106025,-4.380467 1.101379,-2.267535 5.553069,-11.572319 9.892644,-20.677297 4.339575,-9.104978 7.93745,-16.507192 7.995278,-16.449364 0.05783,0.05783 -1.465092,6.005605 -3.384267,13.217283 -1.919174,7.211678 -3.710253,14.060587 -3.980175,15.219798 -0.464745,1.9959 -0.564274,2.17285 -1.877054,3.337222 -1.211452,1.074495 -6.386679,5.830886 -9.729186,8.941792 -0.61973,0.576789 -1.080199,0.932754 -1.023265,0.791033 z"
     id="path4451"
     inkscape:connector-curvature="0" />
  <path
     style="fill:#ffa500;fill-opacity:0.41401277"
     d="m 78.095525,128.50097 c -0.0811,-1.02317 -0.322056,-6.49844 -0.535457,-12.16728 -0.2134,-5.66884 -0.449975,-11.06068 -0.52572,-11.98186 l -0.137719,-1.67489 2.77774,-0.74724 c 1.527757,-0.41098 4.035794,-1.14346 5.573415,-1.62773 1.53762,-0.48428 2.821796,-0.843744 2.853723,-0.798814 0.03193,0.04493 1.377491,1.994924 2.990141,4.333324 1.612651,2.33839 6.047292,8.70398 9.854762,14.14576 5.14399,7.35198 6.83528,9.94953 6.58256,10.10977 -0.18706,0.11861 -0.81512,0.21743 -1.39569,0.2196 -1.18252,0.004 -25.138967,1.72082 -26.816433,1.92131 l -1.073867,0.12835 -0.147455,-1.8603 z"
     id="path4453"
     inkscape:connector-curvature="0" />
  <path
     style="fill:#ffa500;fill-opacity:0.41401277"
     d="m 75.820334,143.1552 c -3.364034,-0.88312 -6.175731,-1.66497 -6.248215,-1.73746 -0.07248,-0.0725 1.568857,-2.09351 3.647423,-4.49117 l 3.779211,-4.35939 11.1011,-0.8086 c 6.105604,-0.44473 13.536127,-1.00363 16.512267,-1.242 3.8043,-0.3047 7.48663,-0.40891 12.40037,-0.35093 l 6.98921,0.0825 -5.18549,3.52392 c -2.85202,1.93816 -6.31266,4.29487 -7.69031,5.23713 l -2.50483,1.71322 -12.697969,2.03718 c -6.983882,1.12045 -12.987852,2.02911 -13.342154,2.01925 -0.354303,-0.01 -3.396578,-0.74049 -6.760613,-1.62361 z"
     id="path4455"
     inkscape:connector-curvature="0" />
  <path
     style="fill:#ffa500;fill-opacity:0.41401277"
     d="m 126.66031,124.06392 c -0.49818,-1.50653 -12.72971,-34.507971 -15.6267,-42.161805 -1.36119,-3.596269 -2.53236,-6.728643 -2.60258,-6.96083 -0.10007,-0.330841 0.72717,-0.124847 3.82437,0.952322 2.17364,0.755964 5.75548,1.979235 7.95966,2.718382 l 4.00758,1.343902 2.02264,16.900527 2.02264,16.900522 -0.31817,2.96326 c -0.17499,1.62979 -0.46002,4.18077 -0.63339,5.66884 l -0.31522,2.70558 -0.34083,-1.0307 z"
     id="path4457"
     inkscape:connector-curvature="0" />
  <path
     style="fill:#ffa500;fill-opacity:0.41401277"
     d="M 75.977919,99.914249 C 74.982872,99.158358 73.366938,97.7124 65.762977,90.773781 62.259879,87.577201 59.166013,84.758037 58.88772,84.50897 l -0.505988,-0.452847 0.79206,-3.219015 c 1.588241,-6.45478 5.900203,-22.88331 7.591108,-28.922044 l 0.631325,-2.254652 6.361965,-0.03357 6.361965,-0.03357 2.407975,1.612967 2.407976,1.612966 0.07144,0.546418 c 0.165666,1.267159 1.262975,20.727251 1.759842,31.209684 0.08397,1.771512 0.159078,5.446265 0.166909,8.166117 l 0.01424,4.945186 -1.030698,0.310096 c -3.602716,1.083913 -8.615417,2.490004 -8.876846,2.490004 -0.170217,0 -0.648598,-0.25761 -1.063067,-0.572461 z"
     id="path4475"
     inkscape:connector-curvature="0" />
  <path
     style="fill:#ffa500;fill-opacity:0.41401277"
     d="m 67.726174,138.848 c -0.193246,-0.30116 -0.571221,-0.79299 -0.839947,-1.09297 -0.268725,-0.29998 -0.630842,-0.86707 -0.804706,-1.26021 -0.3557,-0.8043 -0.905227,-1.70655 -3.56923,-5.8602 -3.100777,-4.83465 -4.019336,-6.29847 -5.133751,-8.18116 -0.587219,-0.99205 -1.743201,-2.81832 -2.568848,-4.05837 -0.825648,-1.24006 -1.537903,-2.35116 -1.58279,-2.46911 -0.04489,-0.11795 -0.463437,-0.77369 -0.930111,-1.45721 -0.466674,-0.68352 -0.809298,-1.30619 -0.761386,-1.38371 0.04791,-0.0775 0.03128,-0.10645 -0.03696,-0.0643 -0.158006,0.0977 -1.344099,-1.66338 -1.803717,-2.67803 -0.391775,-0.86489 -1.553039,-2.71502 -2.156046,-3.43503 -0.230906,-0.27571 -0.403391,-0.63644 -0.415036,-0.86798 -0.03704,-0.73659 -0.552385,-1.18521 13.21999,11.5084 5.726471,5.27793 12.328803,11.52025 13.67841,12.93257 l 1.116778,1.16866 -0.642077,0.8132 c -2.621802,3.32057 -5.929494,6.93298 -6.348159,6.93298 -0.03908,0 -0.229171,-0.2464 -0.422415,-0.54756 z"
     id="path4497"
     inkscape:connector-curvature="0" />
  <path
     style="fill:#ffa500;fill-opacity:0.41401277"
     d="m 110.01944,127.80132 c -0.61369,-0.85245 -3.05663,-4.33831 -3.37394,-4.81431 -0.15004,-0.22508 -0.36746,-0.48779 -0.48314,-0.58379 -0.11569,-0.096 -0.21034,-0.24733 -0.21034,-0.33627 0,-0.0889 -0.093,-0.2389 -0.20667,-0.33323 -0.11368,-0.0943 -0.26038,-0.28987 -0.32602,-0.4345 -0.0656,-0.14463 -0.35075,-0.58184 -0.63358,-0.97158 -0.64638,-0.89069 -1.49648,-2.11665 -2.19818,-3.17006 -0.18523,-0.27807 -0.43163,-0.5843 -0.54756,-0.68051 -0.11593,-0.0962 -0.21078,-0.2477 -0.21078,-0.33664 0,-0.0889 -0.093,-0.23889 -0.20668,-0.33323 -0.11367,-0.0943 -0.25888,-0.28986 -0.3227,-0.43449 -0.0638,-0.14464 -0.37817,-0.61083 -0.69858,-1.036 -0.3204,-0.42516 -0.692973,-0.94695 -0.827932,-1.15953 -0.350109,-0.55148 -0.772295,-1.14846 -1.310848,-1.85358 -0.257347,-0.33694 -0.56288,-0.78243 -0.678962,-0.98999 -0.116082,-0.20755 -0.412592,-0.63826 -0.658912,-0.95713 -0.24632,-0.31887 -0.50002,-0.69811 -0.563779,-0.84274 -0.06376,-0.14463 -0.214971,-0.34517 -0.336025,-0.44563 -0.121055,-0.10047 -0.272266,-0.30101 -0.336025,-0.44564 -0.06376,-0.14463 -0.318622,-0.52386 -0.566363,-0.84274 -0.24774,-0.31887 -0.488057,-0.66673 -0.534037,-0.77302 -0.04598,-0.10629 -0.198979,-0.32153 -0.339997,-0.47831 -0.141019,-0.15678 -0.320804,-0.39714 -0.399523,-0.53414 -0.279538,-0.48649 -1.158436,-1.76189 -1.407591,-2.04261 -0.139153,-0.15678 -0.317412,-0.39612 -0.396131,-0.53188 -0.361933,-0.62419 -1.36233,-2.04641 -1.547629,-2.20019 -0.113279,-0.094 -0.205962,-0.22794 -0.205962,-0.297608 0,-0.06967 -0.142789,-0.296367 -0.317308,-0.503771 -0.268478,-0.319068 -0.296996,-0.430977 -0.185314,-0.727204 0.232506,-0.616702 0.768022,-1.467357 2.045318,-3.248942 0.685839,-0.956617 2.143282,-3.04378 3.238761,-4.638141 2.479006,-3.607947 2.271405,-3.307862 3.304773,-4.776999 0.477378,-0.678686 2.168946,-3.084721 3.759036,-5.346746 3.38186,-4.810928 4.03539,-5.710772 4.15277,-5.717944 0.0476,-0.0029 0.15676,0.21212 0.24247,0.477846 0.34326,1.064224 2.81753,7.826387 5.33877,14.590819 4.11871,11.0504 8.79797,23.66051 10.75677,28.98838 0.97696,2.65727 2.13079,5.74726 2.56408,6.86664 0.43328,1.11938 0.78779,2.08477 0.78779,2.14531 0,0.18045 -2.53052,0.26108 -9.32034,0.29701 l -6.4215,0.034 -0.41819,-0.58089 z"
     id="path4499"
     inkscape:connector-curvature="0" />
  <path
     style="fill:#ffa500;fill-opacity:0.41401277"
     d="m 121.54133,77.088174 c -0.24801,-0.108758 -2.98166,-1.058237 -6.07479,-2.109951 -3.09312,-1.051716 -6.24156,-2.158245 -6.99653,-2.458953 l -1.37266,-0.546744 -0.37941,-0.811495 c -0.20867,-0.446323 -0.3794,-0.882084 -0.3794,-0.96836 0,-0.08628 -0.37127,-1.175757 -0.82503,-2.421071 -1.49932,-4.114749 -9.458749,-25.621467 -11.358804,-30.691989 -1.846435,-4.927433 -2.503617,-6.754542 -2.503617,-6.960609 0,-0.46087 0.195808,-0.174752 6.363763,9.298848 5.424008,8.330944 10.455248,15.980856 11.032598,16.774881 0.34532,0.474913 0.71923,1.040187 0.83092,1.256163 0.11168,0.215975 0.25955,0.392683 0.32859,0.392683 0.069,0 0.12553,0.08696 0.12553,0.193256 0,0.106291 0.11595,0.309209 0.25768,0.45093 0.14172,0.141721 0.25767,0.344149 0.25767,0.44984 0,0.10569 0.11595,0.264577 0.25767,0.353083 0.14173,0.08851 0.25768,0.236447 0.25768,0.328757 0,0.09231 0.83043,1.397335 1.8454,2.900055 1.01497,1.502722 2.01139,3.022105 2.21428,3.376407 0.54113,0.944979 2.41641,3.785797 2.88206,4.365973 0.22109,0.275471 0.40198,0.606798 0.40198,0.736282 0,0.129484 0.11596,0.297482 0.25768,0.373329 0.14172,0.07585 0.25767,0.249776 0.25767,0.386511 0,0.136735 0.11595,0.310666 0.25768,0.386512 0.14172,0.07585 0.25829,0.237322 0.25904,0.358835 7.7e-4,0.121513 0.23204,0.510817 0.51398,0.865119 0.28194,0.354303 0.51323,0.697002 0.51398,0.761554 7.7e-4,0.06455 0.31056,0.528367 0.68847,1.030699 0.71777,0.954092 0.90432,1.256799 1.11332,1.806517 0.11614,0.305473 0.0989,0.330381 -0.22535,0.325724 -0.19312,-0.0028 -0.55404,-0.09403 -0.80205,-0.202786 z"
     id="path4505"
     inkscape:connector-curvature="0" />
  <path
     style="fill:#ffa500;fill-opacity:0.41401277"
     d="m 67.31102,49.932475 c -0.01305,-0.146828 1.325977,-4.724678 1.605823,-5.489972 0.116602,-0.318872 0.250024,-0.852014 0.296494,-1.184758 l 0.08449,-0.604991 1.674884,0.999063 c 0.921187,0.549484 3.00835,1.859207 4.638141,2.910495 1.629792,1.051287 3.338828,2.149444 3.79786,2.440347 l 0.834604,0.528915 -2.638325,0.07887 c -1.451079,0.04338 -4.329314,0.08686 -6.396078,0.09663 -2.872106,0.01357 -3.773069,0.05571 -3.822737,0.178804 -0.03574,0.08857 -0.06956,0.109545 -0.07515,0.0466 z"
     id="path4509"
     inkscape:connector-curvature="0" />
  <path
     style="fill:#ffa500;fill-opacity:0.41401277"
     d="M 73.356199,97.879672 C 64.83913,90.205239 60.7809,86.499987 59.175546,84.932431 l -1.103673,-1.077688 1.653446,-6.210418 c 0.909396,-3.41573 2.322766,-8.732407 3.140824,-11.814838 4.146159,-15.622674 6.179239,-23.038739 6.371335,-23.240714 0.144772,-0.152218 2.469331,1.299457 11.655701,7.278921 0.921186,0.599605 2.269146,1.455727 2.995466,1.902491 0.817882,0.503085 1.320623,0.893704 1.32069,1.026147 5.9e-5,0.117617 0.05594,0.822604 0.124176,1.566639 0.06824,0.744035 0.242884,3.874781 0.388103,6.957212 0.288689,6.127757 0.612203,12.327056 1.099286,21.064891 0.405324,7.271194 0.707536,13.445114 0.706332,14.429772 -9.02e-4,0.716424 -0.02681,0.785083 -0.354242,0.937721 -0.194314,0.09058 -2.121589,0.678821 -4.282834,1.307193 -4.85672,1.41207 -5.221686,1.51144 -5.862095,1.59605 l -0.515349,0.0681 -3.156513,-2.844218 z"
     id="path4535"
     inkscape:connector-curvature="0" />
  <path
     style="fill:#ffa500;fill-opacity:0.41401277"
     d="m 67.862439,139.04126 c -0.119556,-0.19487 -0.541225,-0.85574 -0.937042,-1.4686 -0.718333,-1.11223 -2.335251,-3.70252 -3.554085,-5.69363 -0.354302,-0.57879 -0.870431,-1.39994 -1.146953,-1.82477 -0.276522,-0.42483 -0.748277,-1.14928 -1.048348,-1.60987 -0.30007,-0.46059 -0.646552,-1.04036 -0.769959,-1.28837 -0.123408,-0.24801 -0.643105,-1.05969 -1.154884,-1.80372 -0.511779,-0.74404 -1.033687,-1.55571 -1.159796,-1.80372 -0.126109,-0.24802 -0.700027,-1.19617 -1.275373,-2.10702 -0.575347,-0.91085 -1.339288,-2.12836 -1.697649,-2.70558 -0.627395,-1.01057 -1.699385,-2.69253 -2.229051,-3.49741 -0.139894,-0.21258 -0.493703,-0.82133 -0.786243,-1.35279 -0.292541,-0.53145 -0.651672,-1.06774 -0.79807,-1.19174 -0.146397,-0.12401 -0.233402,-0.22547 -0.193342,-0.22547 0.04006,0 -0.06551,-0.13834 -0.234587,-0.30742 -0.169083,-0.16908 -0.550356,-0.79233 -0.847274,-1.385 -0.296918,-0.59267 -0.783741,-1.45443 -1.081827,-1.91502 -1.791795,-2.76862 -1.968787,-3.09209 -1.691858,-3.09209 0.104123,0 0.789132,0.56527 1.522241,1.25616 2.004186,1.88876 4.014289,3.73464 5.38111,4.94148 1.329306,1.17371 7.954267,7.28004 12.690469,11.697 1.629791,1.51994 4.084785,3.86399 5.455542,5.20901 2.338894,2.29498 2.487575,2.46904 2.41577,2.82807 -0.115685,0.57842 -0.98925,1.7219 -3.423706,4.48157 -2.292919,2.59923 -2.884114,3.21323 -3.093877,3.21323 -0.06811,0 -0.221653,-0.15944 -0.341208,-0.3543 z"
     id="path4537"
     inkscape:connector-curvature="0" />
  <path
     style="fill:#ffa500;fill-opacity:0.41401277"
     d="m 109.32839,126.74726 c -0.58769,-0.87352 -1.35835,-1.99406 -1.71259,-2.49008 -0.8242,-1.15412 -1.16134,-1.63654 -1.75918,-2.51729 -0.2664,-0.39246 -0.5579,-0.7983 -0.64777,-0.90186 -0.0899,-0.10356 -0.33959,-0.44919 -0.55492,-0.76806 -1.07349,-1.58967 -1.88395,-2.77469 -2.11609,-3.09407 -0.14172,-0.19498 -0.48489,-0.69463 -0.7626,-1.11033 -0.27771,-0.41571 -0.56843,-0.81381 -0.64603,-0.88467 -0.0776,-0.0709 -0.53387,-0.70861 -1.01393,-1.41721 -2.119144,-3.12808 -3.19136,-4.63321 -3.372963,-4.73484 -0.107477,-0.0602 -0.195412,-0.21901 -0.195412,-0.35303 0,-0.13402 -0.05562,-0.27804 -0.123591,-0.32005 -0.06797,-0.042 -0.391631,-0.47589 -0.719236,-0.96418 -0.327605,-0.48829 -0.677827,-0.91933 -0.77827,-0.95788 -0.100444,-0.0385 -0.182625,-0.18443 -0.182625,-0.32419 0,-0.13976 -0.05834,-0.29017 -0.129655,-0.33425 -0.07131,-0.0441 -0.404676,-0.48994 -0.740814,-0.99083 -0.336137,-0.50088 -0.727113,-1.06937 -0.868834,-1.26331 -0.14172,-0.19394 -0.547558,-0.77371 -0.90186,-1.28838 -0.354303,-0.51466 -0.76014,-1.09391 -0.901861,-1.28721 -0.141721,-0.1933 -0.369837,-0.51904 -0.506925,-0.72386 -0.137088,-0.204829 -0.364069,-0.502289 -0.504401,-0.661024 -0.220608,-0.249537 -0.233726,-0.33563 -0.0969,-0.635928 0.318646,-0.69935 5.493139,-8.350561 8.087969,-11.959188 0.305718,-0.425163 0.713949,-1.03194 0.907179,-1.348393 0.193229,-0.316453 0.700838,-1.042695 1.12802,-1.613871 0.42718,-0.571176 1.96521,-2.732127 3.41785,-4.802115 1.45264,-2.069987 2.67752,-3.764275 2.72196,-3.765084 0.12711,-0.0023 3.75991,9.641639 12.35083,32.787613 6.58312,17.7365 7.08722,19.1382 7.08722,19.70675 0,0.24639 -0.0879,0.30684 -0.54756,0.37652 -0.30115,0.0457 -3.76527,0.11576 -7.69802,0.15577 l -7.15047,0.0728 -1.06852,-1.58823 z"
     id="path4539"
     inkscape:connector-curvature="0" />
  <path
     style="fill:#ffa500;fill-opacity:0.41401277"
     d="m 115.80807,75.045905 c -3.61388,-1.223188 -7.02202,-2.41208 -7.57365,-2.641983 -1.11549,-0.464915 -1.25727,-0.644288 -1.83394,-2.320335 -0.15894,-0.461952 -2.43505,-6.637589 -5.05802,-13.723638 -5.486978,-14.823272 -8.99149,-24.43782 -9.110495,-24.994427 l -0.08264,-0.386512 0.334075,0.386512 c 0.426922,0.493931 5.916362,8.735146 11.285067,16.942098 2.29454,3.507595 4.59417,6.984178 5.11028,7.72574 0.51612,0.741563 0.93839,1.413804 0.93839,1.49387 0,0.08007 0.11596,0.25051 0.25768,0.378766 0.14172,0.128256 0.25767,0.31068 0.25767,0.405387 0,0.09471 0.11595,0.244611 0.25768,0.333117 0.14172,0.08851 0.25767,0.253942 0.25767,0.367636 0,0.113693 0.11595,0.311651 0.25767,0.439907 0.14173,0.128256 0.25768,0.321929 0.25768,0.430386 0,0.108456 0.10924,0.316883 0.24276,0.463171 0.37938,0.415657 2.85754,4.119204 3.71255,5.548305 1.00647,1.682259 4.76081,7.417113 6.45229,9.85605 0.83239,1.200217 1.00856,1.553249 0.76499,1.532986 -0.0863,-0.0072 -3.11382,-1.01385 -6.72771,-2.237036 z"
     id="path4541"
     inkscape:connector-curvature="0" />
  <path
     style="fill:#ffa500;fill-opacity:0.29936308"
     d="M 89.41274,95.446627 C 89.376392,95.2071 89.285539,93.793612 89.210846,92.305542 89.136153,90.817472 88.639831,81.496314 88.107908,71.591858 L 87.140775,53.583756 88.171387,41.637197 c 0.566837,-6.570608 1.045372,-12.091501 1.063413,-12.268653 0.02026,-0.198969 0.371053,0.61365 0.91767,2.125815 1.050968,2.907401 6.159764,16.714765 11.48858,31.049778 2.1073,5.668839 3.83243,10.364957 3.83362,10.435817 0.002,0.110116 -15.589085,22.4719 -15.888631,22.788766 -0.05897,0.06238 -0.13695,-0.08257 -0.173299,-0.322093 z"
     id="path4549"
     inkscape:connector-curvature="0" />
  <path
     style="fill:#ffa500;fill-opacity:0.29936308"
     d="m 78.068585,129.19842 c -0.04434,-0.66273 -0.195122,-4.04582 -0.335067,-7.51798 -0.468439,-11.62242 -0.659312,-16.09422 -0.749405,-17.55717 l -0.08945,-1.45251 0.51763,-0.13604 c 1.091026,-0.28674 5.145059,-1.45442 7.841099,-2.25847 1.54779,-0.461601 2.82788,-0.820499 2.844643,-0.797549 0.01676,0.02295 3.964953,5.694459 8.773753,12.603359 4.808803,6.9089 9.310073,13.35881 10.002823,14.33314 0.69275,0.97434 1.18057,1.77152 1.08404,1.77152 -0.17155,0 -4.3945,0.30134 -17.145003,1.22342 -8.544672,0.61793 -11.216694,0.82156 -12.001059,0.91458 l -0.663381,0.0787 -0.08062,-1.20497 z"
     id="path4551"
     inkscape:connector-curvature="0" />
  <path
     style="fill:#ffa500;fill-opacity:0.29936308"
     d="m 75.868526,143.1923 c -3.613885,-0.94991 -6.597265,-1.72896 -6.629734,-1.73123 -0.03247,-0.002 0.177659,-0.25052 0.46695,-0.55167 0.289292,-0.30116 2.018695,-2.28687 3.843118,-4.41268 1.824423,-2.12581 3.440563,-3.90587 3.591423,-3.95568 0.150859,-0.0498 5.231303,-0.44516 11.289875,-0.87855 6.058572,-0.43339 13.232492,-0.95838 15.942052,-1.16665 4.76269,-0.36607 5.17319,-0.37755 12.34857,-0.3454 l 7.4221,0.0333 -7.77935,5.29823 c -7.76166,5.28617 -7.78139,5.29855 -8.67671,5.4448 -3.40363,0.55597 -25.124781,4.00725 -25.179463,4.00076 -0.03747,-0.004 -3.024946,-0.78527 -6.638831,-1.73518 z"
     id="path4553"
     inkscape:connector-curvature="0" />
  <path
     style="fill:#ffa500;fill-opacity:0.29936308"
     d="m 75.536204,129.26373 c -0.171526,-0.18655 -4.311558,-4.08526 -9.200072,-8.6638 C 45.115196,100.72459 42.626706,98.387827 42.594031,98.305399 42.564544,98.231015 54.818173,86.774095 56.21612,85.568992 l 0.491298,-0.423524 2.887427,2.678176 c 1.588084,1.472997 5.66803,5.213658 9.066547,8.31258 l 6.179121,5.634406 0.565124,13.85479 c 0.310817,7.62014 0.537518,13.88241 0.503778,13.91615 -0.03374,0.0337 -0.201684,-0.0913 -0.373211,-0.27784 z"
     id="path4555"
     inkscape:connector-curvature="0" />
  <path
     style="fill:#ffa500;fill-opacity:0.29936308"
     d="m 44.367818,93.601095 c 0,-0.04252 0.225827,-0.526467 0.501837,-1.075424 0.436677,-0.868506 17.005897,-35.536862 19.124115,-40.014054 0.431458,-0.911955 0.804517,-1.597958 0.829019,-1.524452 0.0245,0.07351 -0.563855,2.414011 -1.307458,5.201123 -3.0627,11.479353 -5.755876,21.656613 -6.131168,23.16911 -0.658813,2.655143 -0.918435,3.45144 -1.14662,3.516849 -0.115475,0.0331 -2.611283,2.284636 -5.546241,5.003413 -5.694144,5.274729 -6.323484,5.844351 -6.323484,5.723435 z"
     id="path4557"
     inkscape:connector-curvature="0" />
  <path
     style="fill:#ffa500;fill-opacity:0.29936308"
     d="m 126.06881,122.5167 c -1.23255,-3.43204 -12.50369,-33.818986 -15.49934,-41.786161 -1.27468,-3.390111 -2.29878,-6.178105 -2.27578,-6.195542 0.023,-0.01744 3.62389,1.190919 8.00197,2.685233 6.70169,2.2874 7.9678,2.757673 8.00855,2.97461 0.0266,0.141721 0.94727,7.823643 2.04588,17.070936 l 1.99748,16.813264 -0.6305,5.28233 c -0.34677,2.90528 -0.64617,5.39774 -0.66532,5.53881 -0.0192,0.14108 -0.46148,-0.93149 -0.98294,-2.38348 z"
     id="path4559"
     inkscape:connector-curvature="0" />
  <path
     style="fill:#ffa500;fill-opacity:0.29936308"
     d="m 77.672247,45.605217 c -4.180768,-2.75416 -7.573565,-5.055606 -7.539549,-5.114325 0.03402,-0.05872 1.744332,-1.385939 3.800699,-2.949376 2.056368,-1.563438 5.9012,-4.505758 8.544072,-6.538491 2.642872,-2.032732 4.818231,-3.695877 4.83413,-3.695877 0.0159,0 -0.04342,0.797181 -0.131817,1.771512 -0.0884,0.974332 -0.540098,6.177747 -1.003776,11.563144 -0.463678,5.385397 -0.856394,9.831983 -0.872705,9.881303 -0.01631,0.04932 -3.450285,-2.163731 -7.631054,-4.91789 z"
     id="path4561"
     inkscape:connector-curvature="0" />
  <path
     style="fill:#ffa500;fill-opacity:0.29936308"
     d="m 90.629897,25.133403 c -0.438123,-0.60834 -0.779488,-1.060568 -1.011956,-1.340605 -0.04624,-0.0557 -0.0664,-0.08726 -0.05239,-0.08201 0.06191,0.0232 0.155321,0.09038 0.23989,0.17255 0.0844,0.082 0.144575,0.167734 0.602331,0.858152 0.27971,0.421878 0.506436,0.769179 0.503835,0.77178 -0.0026,0.0026 -0.129372,-0.16834 -0.281714,-0.379869 z"
     id="path4582"
     inkscape:connector-curvature="0" />
  <path
     style="fill:#ffa500;fill-opacity:1"
     d="m 88.009393,24.185692 c 0,-0.0016 0.434155,-0.336028 0.503906,-0.388158 0.106756,-0.07979 0.245686,-0.142626 0.380859,-0.172267 0.03696,-0.0081 0.123287,-0.02099 0.12554,-0.01874 7.24e-4,7.25e-4 -0.01844,0.0099 -0.04258,0.02036 -0.192011,0.0833 -0.515105,0.269061 -0.880976,0.506502 -0.08014,0.05201 -0.08675,0.05599 -0.08675,0.0523 z"
     id="path4592"
     inkscape:connector-curvature="0" />
  <path
     style="fill:#ffa500;fill-opacity:1"
     d="m 91.075331,25.76895 c -0.0177,-0.02524 -0.12783,-0.180132 -0.244745,-0.344203 -0.575807,-0.808049 -1.002814,-1.37755 -1.240121,-1.653953 -0.03234,-0.03767 -0.05785,-0.06943 -0.0567,-0.07059 0.0033,-0.0033 0.02496,0.0071 0.0685,0.03268 0.08463,0.04978 0.143299,0.09604 0.222399,0.175322 0.06469,0.06485 0.08807,0.09276 0.121534,0.145143 0.04095,0.0641 0.71524,1.080134 1.012728,1.526001 0.08454,0.126701 0.152549,0.23152 0.15114,0.232929 -0.0014,0.0014 -0.01704,-0.01809 -0.03473,-0.04333 z"
     id="path4596"
     inkscape:connector-curvature="0" />
  <path
     style="fill:#ffa500;fill-opacity:1"
     d="m 128.47063,129.57035 c -1.6e-4,-0.002 0.005,-0.0262 0.0112,-0.0527 0.0406,-0.17006 0.0895,-0.42 0.16583,-0.8471 0.005,-0.029 0.01,-0.0487 0.01,-0.0437 4.4e-4,0.0108 -0.0682,0.58883 -0.0743,0.62568 -0.0148,0.0895 -0.0472,0.19095 -0.0859,0.2692 -0.0144,0.0292 -0.0264,0.0511 -0.0266,0.0486 z"
     id="path4602"
     inkscape:connector-curvature="0" />
  <path
     style="fill:#ffa500;fill-opacity:1"
     d="m 68.533348,143.38114 c -0.206981,-0.0556 -0.278022,-0.0814 -0.36886,-0.13383 -0.06291,-0.0363 -0.138783,-0.0895 -0.134211,-0.094 0.0014,-0.001 0.03028,0.0102 0.06424,0.0258 0.08454,0.0387 0.244893,0.10166 0.467997,0.18364 0.103125,0.0379 0.180469,0.0688 0.171875,0.0686 -0.0086,-1.7e-4 -0.09906,-0.0228 -0.201045,-0.0502 z"
     id="path4604"
     inkscape:connector-curvature="0" />
  <path
     style="fill:#ffa500;fill-opacity:1"
     d="m 39.996728,98.24574 c -0.0013,-0.05677 0.02547,-0.196598 0.05334,-0.278347 0.0283,-0.08301 0.944829,-2.015537 0.952334,-2.008032 0.0019,0.0019 -0.07057,0.167909 -0.160963,0.368991 -0.330317,0.734805 -0.563101,1.266427 -0.72796,1.662479 -0.05902,0.141797 -0.109299,0.263086 -0.111724,0.269531 -0.0024,0.0064 -0.0047,-1.34e-4 -0.005,-0.01462 z"
     id="path4606"
     inkscape:connector-curvature="0" />
  <path
     style="fill:#ffa500;fill-opacity:1"
     d="m 66.847674,41.780538 c 0,-0.0018 0.210727,-0.444933 0.468282,-0.984755 0.316468,-0.663298 0.482719,-1.00319 0.512814,-1.048419 0.04692,-0.07052 0.177642,-0.213417 0.186907,-0.204318 0.003,0.0029 -0.01724,0.04513 -0.04496,0.09375 -0.19126,0.335545 -0.624386,1.165214 -0.989306,1.89505 -0.109651,0.219301 -0.133742,0.264099 -0.133742,0.248692 z"
     id="path4608"
     inkscape:connector-curvature="0" />
  <path
     style="fill:#ffa500;fill-opacity:1"
     d="m 68.064862,39.449824 c 0,-0.015 0.05976,-0.08206 0.132812,-0.14902 1.067643,-0.978716 14.442897,-11.284662 17.898438,-13.791165 0.317968,-0.230641 0.725781,-0.551364 0.90625,-0.712718 0.180468,-0.161353 0.409904,-0.348086 0.509857,-0.414961 0.152662,-0.102141 0.19108,-0.115754 0.240166,-0.0851 0.03214,0.02007 0.05186,0.04713 0.04383,0.06012 -0.01856,0.03004 -2.704371,2.093683 -3.70723,2.84846 -0.882684,0.66433 -15.421512,11.827482 -15.591746,11.971599 -0.13745,0.116364 -0.39178,0.300055 -0.415441,0.300055 -0.0093,0 -0.01694,-0.01227 -0.01694,-0.02727 z"
     id="path4624"
     inkscape:connector-curvature="0" />
  <path
     style="fill:#ffa500;fill-opacity:1"
     d="m 58.657804,58.591955 c 0,-0.01771 2.551574,-5.307028 3.957229,-8.203188 0.572566,-1.179695 1.57481,-3.236187 1.991516,-4.086368 0.145435,-0.296721 0.305309,-0.628948 0.355277,-0.738282 0.08556,-0.187215 0.09346,-0.198788 0.135602,-0.198788 0.02461,0 0.04475,0.0032 0.04475,0.007 0,0.01058 -1.466192,3.078413 -1.706724,3.571116 -0.115372,0.236328 -1.199975,2.505664 -2.410228,5.042969 l -2.200461,4.613281 -0.08348,0 c -0.04591,0 -0.08348,-0.0035 -0.08348,-0.0077 z"
     id="path4628"
     inkscape:connector-curvature="0" />
  <path
     style="fill:#ffa500;fill-opacity:1"
     d="m 49.536616,77.672164 c 0.0166,-0.03126 0.212785,-0.443554 0.435964,-0.91621 1.175451,-2.489411 4.871409,-10.239761 7.436291,-15.59375 0.687526,-1.435156 1.362952,-2.848437 1.500948,-3.140625 0.252617,-0.534882 1.633698,-3.398085 2.694407,-5.585937 0.512212,-1.056506 0.579621,-1.179688 0.645568,-1.179688 0.0405,0 0.07363,0.006 0.07363,0.0134 0,0.01702 -3.29146,6.915297 -3.519906,7.377053 -0.09358,0.189155 -2.17876,4.555638 -4.633729,9.703294 l -4.46358,9.359375 -0.09989,0.01 c -0.08807,0.0088 -0.09632,0.0032 -0.06971,-0.04687 z"
     id="path4630"
     inkscape:connector-curvature="0" />
  <path
     style="fill:#ffa500;fill-opacity:1"
     d="m 41.543098,94.768312 c -0.0025,-0.09388 5.70882,-12.311702 7.609274,-16.277983 0.115296,-0.240625 0.269413,-0.578125 0.342482,-0.75 0.184471,-0.433918 4.221456,-8.919465 4.264234,-8.963214 0.01383,-0.01414 0.0687,-0.02117 0.121939,-0.01563 l 0.0968,0.01009 -2.119078,4.4375 c -1.165492,2.440625 -3.304566,6.919531 -4.753496,9.953125 -1.44893,3.033594 -2.820418,5.916406 -3.04775,6.40625 -0.879703,1.895532 -2.512475,5.272156 -2.5144,5.199858 z"
     id="path4632"
     inkscape:connector-curvature="0" />
  <path
     style="fill:#ffa500;fill-opacity:1"
     d="m 49.375558,113.85752 c -3.577989,-5.69269 -8.9767,-14.377841 -9.393914,-15.112422 -0.09756,-0.17178 -0.10154,-0.190222 -0.06633,-0.30773 0.0206,-0.06875 0.04372,-0.118727 0.05139,-0.111062 0.0077,0.0077 0.0349,0.09442 0.06052,0.192789 0.03761,0.144392 0.967781,1.647125 4.827648,7.799255 2.629584,4.19121 4.781061,7.62849 4.781061,7.63837 0,0.01 -0.04201,0.018 -0.09336,0.018 -0.07395,0 -0.108668,-0.0243 -0.167013,-0.11718 z"
     id="path4636"
     inkscape:connector-curvature="0" />
  <path
     style="fill:#ffa500;fill-opacity:1"
     d="m 59.759075,130.37314 c -1.487711,-2.35584 -6.396734,-10.16196 -8.278458,-13.16406 -1.088092,-1.73594 -2.002836,-3.18438 -2.032765,-3.21875 -0.05488,-0.063 -1.828245,-2.88994 -4.234384,-6.75 -0.717818,-1.15156 -1.326491,-2.12638 -1.352608,-2.16625 -0.04705,-0.0718 -0.04639,-0.0724 0.07146,-0.0625 l 0.118942,0.01 1.263529,2.01562 c 0.694941,1.1086 2.002996,3.19688 2.906789,4.64063 0.903793,1.44375 3.994331,6.37266 6.867861,10.95312 2.87353,4.58047 5.297121,8.44414 5.385759,8.58594 l 0.161159,0.25781 -0.09082,0 c -0.08539,0 -0.132434,-0.0659 -0.786459,-1.10156 z"
     id="path4642"
     inkscape:connector-curvature="0" />
  <path
     style="fill:#ffa500;fill-opacity:1"
     d="m 67.879504,143.09189 c -0.07415,-0.0584 -0.607561,-0.82161 -0.737097,-1.05469 -0.06209,-0.11171 -0.203641,-0.34375 -0.314558,-0.51562 -0.748309,-1.15957 -2.994767,-4.69728 -5.122063,-8.06621 -0.706733,-1.11923 -1.347388,-2.1247 -1.423678,-2.23438 -0.198293,-0.28507 -7.052429,-11.17382 -7.052429,-11.20377 0,-0.008 0.05207,-0.0107 0.115705,-0.005 l 0.115706,0.01 1.019331,1.625 c 1.711427,2.72832 6.100428,9.73047 6.650044,10.60937 0.284823,0.45547 0.906347,1.43985 1.381163,2.1875 1.174816,1.84989 5.186333,8.24081 5.252846,8.36854 0.02947,0.0566 0.09067,0.15152 0.135988,0.21093 0.08253,0.10821 0.07217,0.14229 -0.02096,0.069 z"
     id="path4644"
     inkscape:connector-curvature="0" />
  <path
     style="fill:#ffa500;fill-opacity:1"
     d="m 82.214054,147.10716 c -0.184627,-0.0346 -2.274588,-0.55646 -3.601084,-0.89913 -4.199844,-1.08494 -6.177303,-1.62246 -8.211416,-2.23203 -0.446875,-0.13391 -0.882812,-0.2524 -0.96875,-0.2633 -0.218171,-0.0277 -0.435647,-0.10439 -0.501168,-0.17679 -0.04284,-0.0473 -0.0454,-0.0612 -0.01131,-0.0612 0.05363,0 1.50769,0.37875 1.856231,0.48351 0.638859,0.19201 11.611914,3.04774 11.710853,3.04774 0.06172,0 0.285625,-0.0343 0.497561,-0.0763 0.211935,-0.042 0.511899,-0.0922 0.666586,-0.11163 0.295763,-0.0372 2.60561,-0.39496 2.726563,-0.42234 0.05786,-0.0131 0.07031,-0.003 0.07031,0.0593 0,0.0905 0.147765,0.0601 -1.453125,0.29907 -1.831684,0.27346 -2.651116,0.37749 -2.78125,0.35308 z"
     id="path4646"
     inkscape:connector-curvature="0" />
  <path
     style="fill:#ffa500;fill-opacity:1"
     d="m 80.464054,146.69516 c -1.810902,-0.45625 -3.829593,-0.97965 -5.742187,-1.48882 l -1.148438,-0.30573 0,-0.10569 c 0,-0.0862 0.01009,-0.1026 0.05469,-0.089 0.118361,0.0361 7.186452,1.87624 7.995887,2.08164 0.843004,0.21393 0.866031,0.21793 1.069552,0.18587 0.114399,-0.018 0.257217,-0.0456 0.317373,-0.0614 0.06016,-0.0157 0.453907,-0.0785 0.875,-0.13951 1.733013,-0.25107 21.964281,-3.47623 22.156251,-3.53203 0.0671,-0.0195 2.55435,-0.40729 2.89062,-0.45068 0.31839,-0.0411 0.52471,-0.12764 0.77371,-0.3246 0.0901,-0.0713 0.80012,-0.55518 1.57786,-1.07538 1.24484,-0.83264 1.41406,-0.93692 1.41406,-0.87149 0,0.063 -0.15862,0.1792 -1.04193,0.76321 -1.15684,0.76484 -2.01457,1.31312 -2.21116,1.41341 -0.0711,0.0363 -0.3359,0.10659 -0.5884,0.15625 -2.22701,0.43796 -11.957627,2.0461 -20.596011,3.40383 -0.988281,0.15534 -1.951562,0.30948 -2.140625,0.34255 -0.885052,0.15481 -3.647589,0.53552 -3.859375,0.53187 -0.04297,-7.4e-4 -0.851562,-0.19621 -1.796875,-0.43437 z"
     id="path4650"
     inkscape:connector-curvature="0" />
  <path
     style="fill:#ffa500;fill-opacity:1"
     d="m 101.07343,144.11533 c 0,-0.043 0.007,-0.0781 0.0157,-0.0781 0.0306,0 3.87953,-0.6239 4.14059,-0.67118 0.75763,-0.13722 2.78314,-0.45889 3.54179,-0.56248 0.47698,-0.0651 0.64335,-0.12998 0.97965,-0.38192 0.15149,-0.11349 0.89418,-0.61753 1.65043,-1.1201 2.43021,-1.615 16.71294,-11.34242 16.88282,-11.49825 0.15444,-0.14167 0.20335,-0.14787 0.13325,-0.0169 -0.13085,0.24449 -8.13283,5.74036 -16.76607,11.51517 -0.95263,0.63722 -1.96932,1.28958 -2.15625,1.38354 -0.22015,0.11068 -0.52464,0.17356 -2.61377,0.5398 -1.622,0.28435 -5.68769,0.96856 -5.75532,0.96856 -0.0355,0 -0.0528,-0.0256 -0.0528,-0.0781 z"
     id="path4654"
     inkscape:connector-curvature="0" />
  <path
     style="fill:#ffa500;fill-opacity:1"
     d="m 128.66718,128.42874 c 0,-0.061 0.48425,-4.06035 0.53173,-4.39154 0.13381,-0.9333 1.18957,-9.87337 1.18831,-10.0625 -7.5e-4,-0.11171 -0.10393,-1.05039 -0.2293,-2.08593 l -0.22793,-1.88282 0.0717,0 c 0.0394,0 0.0729,0.004 0.0743,0.008 0.001,0.004 0.1113,0.9065 0.24415,2.0049 l 0.24154,1.99709 -0.29075,2.40916 c -0.82065,6.80007 -0.94338,7.78071 -1.1971,9.56541 -0.0684,0.48125 -0.13893,1.07187 -0.15669,1.3125 -0.0458,0.62056 -0.14595,1.14062 -0.21963,1.14062 -0.0167,0 -0.0304,-0.007 -0.0304,-0.0147 z"
     id="path4656"
     inkscape:connector-curvature="0" />
  <path
     style="fill:#ffa500;fill-opacity:1"
     d="m 130.10468,116.47838 c 0,-0.0152 0.064,-0.58118 0.14227,-1.25781 0.13197,-1.14108 0.1399,-1.25289 0.10947,-1.54274 -0.059,-0.56228 -0.42491,-3.63235 -1.62851,-13.66464 -0.65215,-5.435862 -1.18573,-9.911253 -1.18573,-9.945311 0,-0.04522 0.0211,-0.06193 0.0781,-0.06193 0.0472,0 0.0781,0.01783 0.0781,0.04502 0,0.02476 0.17613,1.511869 0.3914,3.304688 0.21528,1.792819 0.73567,6.142484 1.15644,9.665922 0.42076,3.52344 0.78615,6.56094 0.81198,6.75 0.0258,0.18906 0.15336,1.21562 0.28341,2.28125 l 0.23646,1.9375 -0.14928,1.25781 -0.14927,1.25781 -0.0875,0 c -0.0481,0 -0.0874,-0.0124 -0.0874,-0.0276 z"
     id="path4658"
     inkscape:connector-curvature="0" />
  <path
     style="fill:#ffa500;fill-opacity:1"
     d="m 128.59048,98.904392 c -0.0125,-0.05705 -0.6467,-5.34685 -0.97133,-8.101563 -0.63589,-5.396019 -1.42757,-11.918556 -1.46522,-12.07187 -0.0298,-0.121418 -0.0994,-0.272272 -0.18161,-0.393613 -0.3414,-0.504026 -3.11529,-4.681582 -3.46761,-5.22232 -0.35644,-0.547074 -0.38937,-0.609072 -0.32353,-0.609072 0.0594,0 0.12055,0.07269 0.32203,0.382813 0.1368,0.210546 0.80835,1.240625 1.49234,2.289062 1.32005,2.023429 2.16018,3.336577 2.26184,3.535339 0.0641,0.12524 0.10096,0.411094 1.09879,8.511536 0.35384,2.872494 0.78948,6.463019 1.19339,9.835938 l 0.22921,1.914062 -0.0865,0 c -0.0643,0 -0.0904,-0.01805 -0.10185,-0.07031 z"
     id="path4660"
     inkscape:connector-curvature="0" />
  <path
     style="fill:#ffa500;fill-opacity:1"
     d="m 126.47967,81.420017 c -2e-5,-0.07524 -0.27466,-2.317869 -0.31407,-2.564566 -0.0338,-0.211333 -0.16189,-0.49775 -0.29165,-0.651971 -0.0782,-0.09297 -3.15248,-4.732566 -3.83167,-5.782672 -0.1976,-0.305514 -2.87299,-4.342576 -5.94531,-8.971251 -3.07232,-4.628674 -5.58604,-8.422033 -5.58604,-8.429687 0,-0.0077 0.0457,-0.01374 0.10156,-0.01353 0.0798,3.04e-4 0.11581,0.02209 0.16799,0.101562 0.0365,0.05565 1.04317,1.577739 2.23698,3.382426 2.52642,3.81922 4.7822,7.23928 6.86886,10.414122 0.81619,1.24183 1.69685,2.577768 1.95702,2.96875 1.24213,1.866646 3.40255,5.180587 4.0632,6.232662 l 0.38653,0.615535 0.061,0.40009 c 0.0335,0.22005 0.11048,0.800872 0.17101,1.290716 0.0605,0.489844 0.11691,0.929297 0.12531,0.976563 0.0138,0.07791 0.007,0.08594 -0.0777,0.08594 -0.0677,0 -0.093,-0.01486 -0.093,-0.05469 z"
     id="path4662"
     inkscape:connector-curvature="0" />
  <path
     style="fill:#ffa500;fill-opacity:1"
     d="m 116.52218,64.106509 c -2.4692,-3.72881 -5.37742,-8.113831 -10.83358,-16.33493 -2.7833,-4.19375 -5.08148,-7.65664 -5.10707,-7.695312 -0.0453,-0.06839 -0.0435,-0.07031 0.0629,-0.07031 l 0.10942,0 2.19741,3.304688 c 1.20857,1.817578 3.41878,5.146875 4.91156,7.398437 1.49279,2.251563 2.75523,4.15 2.80544,4.21875 0.2588,0.354419 7.62394,11.495899 7.62394,11.532976 0,0.0076 -0.0457,0.01345 -0.10156,0.01289 -0.0996,-9.88e-4 -0.13108,-0.04557 -1.66844,-2.367188 z"
     id="path4664"
     inkscape:connector-curvature="0" />
  <path
     style="fill:#ffa500;fill-opacity:1"
     d="m 103.38593,44.311392 c -1.71016,-2.581028 -4.678447,-7.048986 -6.5962,-9.928795 -3.014694,-4.52704 -4.339981,-6.526748 -5.051294,-7.621835 -0.279961,-0.431008 -0.163716,-0.321491 0.178355,0.168032 0.175702,0.251438 0.391808,0.538596 0.480236,0.638128 0.08843,0.09953 0.28734,0.38728 0.442027,0.639439 0.154688,0.252159 0.616893,0.953583 1.027124,1.558719 1.495159,2.20553 2.64641,3.915077 4.739395,7.037749 1.175041,1.753125 2.153577,3.201563 2.174527,3.21875 0.0209,0.01719 0.36743,0.530469 0.76995,1.140625 0.40253,0.610156 1.73912,2.62461 2.9702,4.476563 l 2.23832,3.367187 -0.13163,-8.92e-4 -0.13164,-8.93e-4 -3.10937,-4.692777 z"
     id="path4666"
     inkscape:connector-curvature="0" />
  <path
     style="fill:#ffffff;fill-opacity:0.41401273"
     d="m 75.442737,99.667718 c -0.656284,-0.559362 -1.184571,-1.050103 -1.173972,-1.090537 0.0106,-0.04043 -0.03912,-0.121974 -0.110485,-0.181202 -0.07137,-0.05923 -0.129757,-0.08022 -0.129757,-0.04665 0,0.03357 -0.119792,-0.02426 -0.266204,-0.128518 -0.146412,-0.104255 -0.247264,-0.220201 -0.224114,-0.257659 0.02315,-0.03746 -0.07582,-0.181068 -0.219932,-0.319137 -0.144112,-0.138068 -0.262022,-0.222305 -0.262022,-0.187193 0,0.03511 -0.08066,0.02067 -0.179252,-0.03209 -0.09859,-0.05276 -0.159798,-0.12741 -0.136022,-0.165881 0.02378,-0.03847 -0.09443,-0.203377 -0.262689,-0.366457 -0.168256,-0.163081 -0.30592,-0.267421 -0.30592,-0.231866 0,0.03555 -0.08066,0.02147 -0.179253,-0.03129 -0.09859,-0.05276 -0.159798,-0.12741 -0.136021,-0.165881 0.06358,-0.102873 -0.550821,-0.670224 -0.727124,-0.671442 -0.08296,-5.3e-4 -0.142981,-0.04452 -0.13337,-0.09766 0.0096,-0.05314 -0.165177,-0.271901 -0.388419,-0.486136 -0.223241,-0.214234 -0.377913,-0.339799 -0.343715,-0.279032 0.0342,0.06077 0.02493,0.110486 -0.0206,0.110486 -0.103889,0 -0.294132,-0.222774 -0.238096,-0.278811 0.02287,-0.02286 -0.144522,-0.218079 -0.371973,-0.433809 -0.227452,-0.215729 -0.360959,-0.322629 -0.296684,-0.237555 0.06428,0.08507 0.07709,0.15468 0.02848,0.15468 -0.107886,0 -0.301416,-0.221098 -0.243886,-0.278627 0.02276,-0.02276 -0.16442,-0.237866 -0.415967,-0.478003 -0.251547,-0.240137 -0.40486,-0.367007 -0.340694,-0.281933 0.06417,0.08507 0.07689,0.154679 0.02828,0.154679 -0.107886,0 -0.301415,-0.221097 -0.243886,-0.278626 0.02276,-0.02277 -0.16442,-0.237867 -0.415967,-0.478004 -0.251547,-0.240137 -0.404859,-0.367007 -0.340694,-0.281933 0.06416,0.08507 0.07818,0.15468 0.03115,0.15468 -0.10853,0 -0.392689,-0.309476 -0.336111,-0.366055 0.02329,-0.02329 -0.164323,-0.238826 -0.416924,-0.478963 -0.2526,-0.240137 -0.384731,-0.34712 -0.293623,-0.237739 0.09111,0.10938 0.125876,0.198873 0.07726,0.198873 -0.110614,0 -0.396417,-0.308624 -0.338987,-0.366055 0.02329,-0.02329 -0.164323,-0.238826 -0.416923,-0.478963 -0.252601,-0.240137 -0.384732,-0.34712 -0.293624,-0.237739 0.09111,0.109381 0.125876,0.198874 0.07726,0.198874 -0.110615,0 -0.396418,-0.308625 -0.338987,-0.366055 0.02329,-0.02329 -0.163461,-0.238826 -0.415008,-0.478963 -0.251547,-0.240137 -0.404859,-0.367007 -0.340694,-0.281934 0.06417,0.08507 0.07895,0.15468 0.03286,0.15468 -0.109386,0 -0.48283,-0.397821 -0.426408,-0.454242 0.02386,-0.02386 -0.123048,-0.199895 -0.326461,-0.391191 -0.203412,-0.191295 -0.317136,-0.278204 -0.25272,-0.19313 0.193659,0.255761 -0.02955,0.174175 -0.302272,-0.110486 -0.139724,-0.14584 -0.218913,-0.265165 -0.175974,-0.265165 0.04294,0 -0.05386,-0.136118 -0.215113,-0.302487 -0.16125,-0.166368 -0.340005,-0.28452 -0.397232,-0.26256 -0.05723,0.02196 -0.198566,-0.06068 -0.314088,-0.183649 -0.115521,-0.122966 -0.175776,-0.223575 -0.1339,-0.223575 0.04188,0 -0.03683,-0.11791 -0.174895,-0.262022 -0.138069,-0.144113 -0.287954,-0.239205 -0.333079,-0.211316 -0.09503,0.05873 -0.610729,-0.406846 -0.553397,-0.499612 0.02108,-0.03411 -0.05988,-0.154278 -0.17992,-0.267046 -0.120035,-0.112768 -0.218246,-0.175112 -0.218246,-0.138544 0,0.109873 -0.750973,-0.567991 -0.755319,-0.681786 -0.0022,-0.05785 -0.04685,-0.09694 -0.0992,-0.08685 -0.05235,0.01008 -0.377186,-0.272503 -0.721863,-0.627969 l -0.626684,-0.646302 0.342523,-1.316576 c 0.578633,-2.224129 3.097976,-12.13963 3.097976,-12.192855 0,-0.02756 0.03403,-0.02908 0.07562,-0.0034 0.04159,0.02571 0.05571,-0.05741 0.03138,-0.184698 -0.02707,-0.141615 -0.0099,-0.210221 0.0442,-0.176776 0.05411,0.03344 0.07126,-0.03516 0.04419,-0.176777 -0.03329,-0.174155 -0.01581,-0.213864 0.07062,-0.160445 0.07659,0.04733 0.0934,0.03627 0.05046,-0.03321 -0.07973,-0.129005 0.02576,-0.64765 0.119899,-0.589471 0.03764,0.02326 0.04852,-0.06185 0.02419,-0.189142 -0.02707,-0.141616 -0.0099,-0.210221 0.04419,-0.176777 0.05411,0.03345 0.07127,-0.03516 0.04419,-0.176776 -0.03329,-0.174155 -0.01581,-0.213864 0.07062,-0.160445 0.07736,0.04781 0.09342,0.0363 0.0492,-0.03525 -0.08758,-0.141702 0.121252,-0.995555 0.227434,-0.92993 0.04947,0.03058 0.0586,-0.04646 0.02254,-0.190163 -0.03499,-0.139406 -0.02643,-0.220423 0.02024,-0.191578 0.04448,0.02749 0.08499,-0.107003 0.09002,-0.298872 0.005,-0.19187 0.07554,-0.422212 0.156676,-0.511872 0.08114,-0.08966 0.139556,-0.197827 0.12981,-0.240372 -0.0097,-0.04255 0.008,-0.137016 0.03936,-0.209936 0.08196,-0.190385 2.999425,-11.150761 3.016921,-11.334005 0.008,-0.08408 0.0412,-0.179482 0.07371,-0.211996 0.03251,-0.03251 0.03415,-0.158581 0.0036,-0.280149 -0.03613,-0.143962 -0.02303,-0.200983 0.03756,-0.163533 0.05802,0.03586 0.07563,-0.0091 0.04678,-0.119399 -0.02544,-0.0973 -0.0056,-0.1769 0.04416,-0.1769 0.04973,0 0.06799,-0.08577 0.04058,-0.190598 -0.03055,-0.116802 -0.01517,-0.169171 0.0397,-0.135258 0.05547,0.03428 0.07271,-0.03273 0.0453,-0.176092 -0.03329,-0.174155 -0.01582,-0.213864 0.07062,-0.160445 0.07582,0.04686 0.09338,0.03623 0.05166,-0.03127 -0.07069,-0.114378 0.250569,-1.330358 1.579811,-5.979656 0.500354,-1.750089 0.961017,-3.412501 1.023698,-3.694248 0.06268,-0.281747 0.145605,-0.531822 0.184277,-0.555723 0.106986,-0.06612 3.87903,2.281166 8.622473,5.365638 2.777071,1.805819 2.603915,1.685069 2.325821,1.621917 -0.205974,-0.04677 -0.208973,-0.04286 -0.04419,0.05767 0.09723,0.05932 0.892723,0.585074 1.767767,1.168344 0.875045,0.58327 1.531328,0.987577 1.458408,0.89846 -0.190654,-0.233 -0.03788,-0.155792 0.873111,0.441241 0.472032,0.309356 0.825575,0.603989 0.848488,0.707107 0.07708,0.34689 0.50437,8.192584 0.456213,8.376737 -0.027,0.103253 -0.0054,0.240347 0.04794,0.304652 0.06242,0.0752 0.08067,0.392196 0.05116,0.888484 -0.02523,0.42436 -0.01826,0.696085 0.01549,0.603833 0.08606,-0.235242 0.38324,5.248934 0.327877,6.050737 -0.03475,0.503271 -0.02723,0.574704 0.03201,0.304178 0.05429,-0.247925 0.06952,0.0029 0.05096,0.839689 -0.01653,0.745492 4.42e-4,1.077159 0.04515,0.883884 0.04513,-0.194982 0.06105,0.09913 0.04305,0.795495 -0.01767,0.683626 -0.0017,0.986911 0.04194,0.795495 0.04403,-0.19319 0.0607,0.105529 0.04442,0.795495 -0.01649,0.698371 0.0011,1.007298 0.04767,0.839689 0.04599,-0.165368 0.0621,0.150655 0.04279,0.83969 -0.01973,0.704052 -0.0037,1.008662 0.04419,0.839689 0.04789,-0.168973 0.06392,0.135637 0.04419,0.839689 -0.01851,0.66051 -0.0023,0.998211 0.04028,0.83969 0.04308,-0.16037 0.06045,0.17148 0.04394,0.839689 -0.01568,0.634796 0.0028,1.010843 0.04333,0.883883 0.04056,-0.1269 0.05802,0.23057 0.041,0.83969 -0.01895,0.678397 -0.0018,0.981022 0.0476,0.839689 0.05137,-0.146977 0.07129,0.09443 0.05949,0.72091 -0.0098,0.518035 0.01209,0.923379 0.04855,0.900764 0.03646,-0.02261 0.06545,0.110386 0.06442,0.295556 -0.001,0.18517 0.14338,3.515912 0.320908,7.40165 0.203364,4.451235 0.292357,7.113203 0.24055,7.195335 -0.09308,0.147568 -1.426239,0.56328 -1.602741,0.499776 -0.06938,-0.02496 -0.09022,-0.0012 -0.05247,0.0599 0.04258,0.06889 0.0016,0.08535 -0.127992,0.05146 -0.104829,-0.02741 -0.190598,-0.0092 -0.190598,0.04058 0,0.04973 -0.0796,0.06961 -0.176899,0.04416 -0.111409,-0.02913 -0.155376,-0.01143 -0.118761,0.04781 0.03725,0.06028 -0.01037,0.07615 -0.132582,0.04419 -0.104896,-0.02743 -0.171053,-0.01805 -0.147015,0.02084 0.06128,0.09916 -0.350692,0.190189 -0.537073,0.118668 -0.112892,-0.04332 -0.134884,-0.02803 -0.08223,0.05716 0.05562,0.09 0.01725,0.10259 -0.169683,0.05567 -0.147554,-0.03703 -0.221038,-0.02742 -0.188824,0.0247 0.07194,0.116396 -0.829856,0.369149 -1.101226,0.30865 -0.152245,-0.03394 -0.182626,-0.02331 -0.100372,0.03512 0.156665,0.111289 -0.198869,0.209812 -0.51304,0.14217 -0.156106,-0.03361 -0.187737,-0.02283 -0.104752,0.0357 0.09114,0.06428 0.06699,0.09687 -0.103462,0.139653 -0.122289,0.03069 -0.291693,0.02919 -0.376451,-0.0033 -0.09791,-0.03757 -0.132926,-0.02487 -0.09602,0.03484 0.07258,0.117436 -0.313402,0.222245 -0.522695,0.141932 -0.09791,-0.03757 -0.132926,-0.02487 -0.09602,0.03484 0.07258,0.117436 -0.313402,0.222245 -0.522695,0.141932 -0.09791,-0.03757 -0.132925,-0.02487 -0.09602,0.03484 0.07385,0.119499 -0.2749,0.210194 -0.562079,0.146172 -0.153472,-0.03422 -0.182999,-0.02361 -0.09942,0.0357 0.156541,0.111088 -0.208715,0.210323 -0.519297,0.141083 -0.153472,-0.03422 -0.182999,-0.02362 -0.09942,0.0357 0.156541,0.11109 -0.208715,0.21032 -0.519296,0.14108 -0.178852,-0.0399 -0.194345,-0.03 -0.08572,0.0545 0.106863,0.0832 0.08399,0.0926 -0.117891,0.0483 -0.168308,-0.0369 -0.231117,-0.0236 -0.191468,0.0406 0.03965,0.0641 -0.02316,0.0775 -0.191468,0.0406 -0.201371,-0.0441 -0.224482,-0.0348 -0.117891,0.0478 0.106996,0.0829 0.08567,0.0925 -0.110486,0.0497 -0.152653,-0.0333 -0.243068,-0.016 -0.243068,0.0465 0,0.0547 -0.05966,0.0766 -0.132582,0.0486 -0.07292,-0.028 -0.132583,-0.0123 -0.132583,0.0347 0,0.0471 -0.10938,0.083 -0.243068,0.0798 -0.177474,-0.004 -0.565073,-0.28029 -1.43631,-1.022864 l 0,2e-6 z M 85.935075,67.529724 c -0.02114,-0.109947 -0.03924,-0.04081 -0.04022,0.153649 -9.81e-4,0.194455 0.01632,0.284412 0.03844,0.199905 0.02212,-0.08451 0.02293,-0.243607 0.0018,-0.353554 l -2e-6,0 z m -0.08839,-1.59099 c -0.02114,-0.109947 -0.03924,-0.0408 -0.04022,0.153649 -9.81e-4,0.194454 0.01632,0.284412 0.03844,0.199904 0.02212,-0.08451 0.02293,-0.243606 0.0018,-0.353553 l -2e-6,0 z m -0.08997,-1.547827 c -0.02223,-0.08507 -0.04042,-0.01547 -0.04042,0.15468 0,0.170148 0.01819,0.239753 0.04042,0.15468 0.02223,-0.08507 0.02223,-0.224286 0,-0.30936 z"
     id="path4680"
     inkscape:connector-curvature="0" />
  <path
     style="fill:#ffffff;fill-opacity:0.41401277"
     d="m 115.48557,74.894133 c -8.18554,-2.739293 -8.37673,-2.81826 -8.59424,-3.549835 -0.0957,-0.321928 -1.28184,-3.566573 -2.63583,-7.210323 C 96.19158,42.433003 92.019352,31.002457 92.087569,30.797806 c 0.04272,-0.128155 1.527531,2.004431 3.299584,4.73908 1.772053,2.734649 5.372127,8.234589 8.000177,12.222089 2.62804,3.9875 6.28265,9.55625 8.12136,12.375 1.83871,2.81875 5.06782,7.727315 7.1758,10.907923 2.10798,3.180605 3.83269,5.85248 3.83269,5.9375 0,0.261067 -0.17836,0.208175 -7.03161,-2.085265 z"
     id="path4682"
     inkscape:connector-curvature="0" />
  <path
     style="fill:#ffffff;fill-opacity:0.41401277"
     d="m 67.17688,138.07148 c -0.464974,-0.72188 -2.457786,-3.9 -4.428472,-7.0625 -1.970686,-3.1625 -3.813278,-6.10584 -4.094647,-6.54075 -0.953551,-1.4739 -3.294817,-5.19726 -5.00482,-7.95925 -0.936417,-1.5125 -2.175751,-3.48125 -2.754075,-4.375 -2.467082,-3.81267 -3.92295,-6.28807 -3.781444,-6.42958 0.08342,-0.0834 0.860629,0.51348 1.727126,1.32645 0.866498,0.81297 2.132591,1.99101 2.813541,2.61787 16.201802,14.91487 23.36309,21.64853 23.36309,21.96797 0,0.38207 -6.470969,7.76042 -6.809946,7.76486 -0.10172,0.001 -0.565379,-0.5882 -1.030353,-1.31007 z"
     id="path4684"
     inkscape:connector-curvature="0" />
  <path
     style="fill:#ffffff;fill-opacity:0.41401277"
     d="m 106.13275,122.07148 c -2.31611,-3.33438 -6.917736,-9.93816 -10.225838,-14.67508 -3.308103,-4.73692 -5.985043,-8.674419 -5.948755,-8.750002 0.10044,-0.209204 8.575173,-12.389153 9.454092,-13.587492 0.423539,-0.577462 2.158821,-3.045899 3.856181,-5.485417 1.69736,-2.439517 3.12312,-4.398479 3.16835,-4.353247 0.088,0.08798 8.70334,23.232815 14.85736,39.913738 2.05445,5.56875 3.9576,10.67437 4.2292,11.34583 0.27161,0.67147 0.49384,1.31834 0.49384,1.4375 0,0.11917 -3.5265,0.21667 -7.83667,0.21667 l -7.83666,0 -4.2111,-6.0625 z"
     id="path4686"
     inkscape:connector-curvature="0" />
</svg>
