<?xml version="1.0" encoding="UTF-8" standalone="no"?>
<svg
   xmlns:dc="http://purl.org/dc/elements/1.1/"
   xmlns:cc="http://creativecommons.org/ns#"
   xmlns:rdf="http://www.w3.org/1999/02/22-rdf-syntax-ns#"
   xmlns:svg="http://www.w3.org/2000/svg"
   xmlns="http://www.w3.org/2000/svg"
   xmlns:sodipodi="http://sodipodi.sourceforge.net/DTD/sodipodi-0.dtd"
   xmlns:inkscape="http://www.inkscape.org/namespaces/inkscape"
   width="172px"
   height="172px"
   viewBox="0 0 172 172"
   version="1.1"
   id="svg2"
   inkscape:version="0.91 r13725"
   sodipodi:docname="red-crystal.svg">
  <metadata
     id="metadata33">
    <rdf:RDF>
      <cc:Work
         rdf:about="">
        <dc:format>image/svg+xml</dc:format>
        <dc:type
           rdf:resource="http://purl.org/dc/dcmitype/StillImage" />
        <dc:title>icon-responsive-crystal</dc:title>
      </cc:Work>
    </rdf:RDF>
  </metadata>
  <sodipodi:namedview
     pagecolor="#ffffff"
     bordercolor="#666666"
     borderopacity="1"
     objecttolerance="10"
     gridtolerance="10"
     guidetolerance="10"
     inkscape:pageopacity="0"
     inkscape:pageshadow="2"
     inkscape:window-width="1240"
     inkscape:window-height="737"
     id="namedview31"
     showgrid="false"
     inkscape:zoom="2.744186"
     inkscape:cx="76.456887"
     inkscape:cy="60.772718"
     inkscape:window-x="44"
     inkscape:window-y="19"
     inkscape:window-maximized="0"
     inkscape:current-layer="svg2" />
  <!-- Generator: Sketch 41.2 (35397) - http://www.bohemiancoding.com/sketch -->
  <title
     id="title4">icon-responsive-crystal</title>
  <desc
     id="desc6">Created with Sketch.</desc>
  <defs
     id="defs8" />
  <g
     id="Symbols"
     stroke="none"
     stroke-width="1"
     fill="none"
     fill-rule="evenodd">
    <g
       id="icon-responsive-crystal">
      <g
         id="g12">
        <rect
           id="bounding-box"
           opacity="0.5"
           x="0"
           y="0"
           width="172"
           height="172" />
        <g
           id="Crystal"
           transform="translate(41.000000, 24.000000)">
          <g
             id="g16">
            <polygon
               id="Path-7"
               stroke="#00B0C1"
               stroke-width="2"
               stroke-linecap="round"
               stroke-linejoin="round"
               fill-opacity="0.15"
               fill="#00B0C1"
               points="48.1081081 0.603960396 27.6621622 16.3069307 0 74.2871287 27.6621622 118.376238 41.4932432 122 67.9527027 117.772277 86.5945946 105.089109 88.3986486 89.990099 84.1891892 54.960396" />
            <polygon
               id="Rectangle-33"
               fill="#FFFFFF"
               points="27.9067797 16.5679012 46.0084746 27.8641975 48.2711864 74.5555556 35.4491525 78.3209877 16.5932203 60.2469136" />
            <polygon
               id="Rectangle-33-Copy-2"
               fill="#FFFFFF"
               points="66.3117469 49.7037037 86.4367717 104.62937 68.574827 104.62937 48.2711864 74.0896569" />
            <polygon
               id="Rectangle-33-Copy-3"
               fill="#FFFFFF"
               points="34.9920202 107.21944 27.3169115 115.118487 7.52201023 83.4464902" />
            <polygon
               id="Rectangle-33-Copy"
               fill="#FFFFFF"
               points="48.2711864 2.25925926 80.8275002 52.553518 65.9957627 48.9506173" />
            <polyline
               id="Path-8"
               stroke="#00B0C1"
               stroke-width="2"
               stroke-linecap="round"
               stroke-linejoin="round"
               points="27.6621622 116.564356 35.4797297 107.50495 0 74.2871287" />
            <polyline
               id="Path-9"
               stroke="#00B0C1"
               stroke-width="2"
               stroke-linecap="round"
               stroke-linejoin="round"
               points="35.4797297 107.50495 68.5540541 105.089109 86.5945946 105.089109" />
            <polyline
               id="Path-10"
               stroke="#00B0C1"
               stroke-width="2"
               stroke-linecap="round"
               stroke-linejoin="round"
               points="68.5540541 104.485149 47.5067568 74.2871287 45.1013514 29.5940594 47.5067568 1.81188119" />
            <polyline
               id="Path-11"
               stroke="#00B0C1"
               stroke-width="2"
               stroke-linecap="round"
               stroke-linejoin="round"
               points="36.0810811 106.90099 34.8783784 77.9108911 47.5067568 74.2871287" />
            <polyline
               id="Path-12"
               stroke="#00B0C1"
               stroke-width="2"
               stroke-linecap="round"
               stroke-linejoin="round"
               points="34.8783784 77.3069307 15.6351351 59.7920792 0.601351351 73.6831683" />
            <polyline
               id="Path-13"
               stroke="#00B0C1"
               stroke-width="2"
               stroke-linecap="round"
               stroke-linejoin="round"
               points="16.2364865 59.7920792 27.6621622 16.9108911 45.1013514 28.3861386" />
            <polyline
               id="Path-26"
               stroke="#00B0C1"
               stroke-width="2"
               stroke-linecap="round"
               stroke-linejoin="round"
               points="48.1081081 74.2871287 65.847973 48.9207921 83.5878378 54.960396" />
            <path
               d="M48.1081081,1.81188119 L85.9932432,103.881188"
               id="Path-27"
               stroke="#00B0C1"
               stroke-width="2"
               stroke-linecap="round"
               stroke-linejoin="round" />
          </g>
        </g>
      </g>
    </g>
  </g>
  <path
     style="fill:#ffffff;fill-opacity:0.14901961"
     d="m 67.090244,137.35222 c -10.118256,-16.1097 -18.652709,-29.85733 -18.583609,-29.9352 0.194797,-0.21953 10.075281,8.59943 19.301545,17.22785 3.826466,3.57852 7.060668,6.60255 7.187116,6.72007 0.213548,0.19847 -1.291912,2.03479 -5.005478,6.10554 -0.808036,0.88576 -1.546699,1.61047 -1.641472,1.61047 -0.09477,0 -0.66092,-0.77793 -1.258102,-1.72873 z"
     id="path4203"
     inkscape:connector-curvature="0" />
  <path
     style="fill:#ffffff;fill-opacity:0.14901961"
     d="m 58.228894,123.29569 c -5.410329,-8.67631 -9.791241,-15.82082 -9.735362,-15.8767 0.331379,-0.33138 26.529534,23.54801 26.529534,24.18144 0,0.33056 -6.398879,7.48096 -6.689753,7.47544 -0.147102,-0.003 -4.694091,-7.10387 -10.104419,-15.78018 z"
     id="path4205"
     inkscape:connector-curvature="0" />
  <path
     style="fill:#ffffff;fill-opacity:0.14901961"
     d="m 67.421668,92.330053 c -5.031095,-4.591459 -9.1342,-8.502803 -9.118012,-8.691872 0.04577,-0.534548 10.697991,-40.501781 10.887146,-40.848664 0.11063,-0.202878 2.843928,1.453306 8.024673,4.862382 4.321293,2.843532 7.871971,5.185104 7.890394,5.203493 0.10549,0.105285 2.408798,44.573792 2.313688,44.668899 -0.117824,0.117825 -10.457505,3.166929 -10.710706,3.158509 -0.07686,-0.003 -4.256088,-3.761287 -9.287183,-8.352747 z"
     id="path4207"
     inkscape:connector-curvature="0" />
  <path
     style="fill:#ffffff;fill-opacity:0.14901961"
     d="M 100.29123,113.54894 C 92.223168,101.97405 90.085577,98.742733 90.260826,98.386339 c 0.122491,-0.249104 3.810949,-5.583128 8.196574,-11.853387 7.07677,-10.117878 7.99868,-11.332704 8.19445,-10.798109 0.12132,0.3313 4.50488,12.150004 9.74125,26.263787 5.23638,14.11378 9.52068,25.7961 9.52068,25.96071 0,0.22057 -2.02112,0.29928 -7.68472,0.29928 l -7.68472,0 -10.25311,-14.70968 z"
     id="path4209"
     inkscape:connector-curvature="0" />
  <path
     style="fill:#ffffff;fill-opacity:0.14901961"
     d="m 120.24494,76.282839 c -2.35046,-0.586307 -12.47461,-3.979978 -12.80572,-4.292545 -0.31894,-0.30108 -15.645931,-41.370067 -15.494677,-41.518306 0.04677,-0.04584 2.767812,4.051568 6.046754,9.10535 3.278943,5.053783 9.980053,15.377836 14.891353,22.942341 4.9113,7.564504 8.89585,13.835327 8.85457,13.935161 -0.0413,0.09983 -0.71281,0.02244 -1.49228,-0.172001 z"
     id="path4213"
     inkscape:connector-curvature="0" />
  <path
     style="fill:#000000;fill-opacity:0.14901961"
     d="m 57.130191,122.11887 c -6.023819,-9.60098 -10.933437,-17.47529 -10.910263,-17.49847 0.02317,-0.0232 2.374631,2.14235 5.22546,4.81227 2.85083,2.66992 6.965557,6.51473 9.143838,8.54402 12.958319,12.072 14.512049,13.54753 14.42092,13.69512 -0.187812,0.30418 -6.740914,7.83963 -6.850045,7.87691 -0.04263,0.0146 -5.006092,-7.82887 -11.02991,-17.42985 z"
     id="path4283"
     inkscape:connector-curvature="0" />
  <path
     style="fill:#000000;fill-opacity:1"
     d="m 61.43041,129.02278 c -3.669157,-5.84987 -8.654357,-13.7928 -11.078223,-17.65096 -2.423866,-3.85815 -4.394362,-7.02939 -4.378879,-7.04719 0.01548,-0.0178 1.92672,1.7482 4.247197,3.92444 7.103339,6.66183 9.93202,9.3001 12.871612,12.00517 6.416938,5.90498 11.867989,11.03988 11.951997,11.2588 0.05168,0.13467 -0.861169,1.2402 -3.779336,4.57709 -1.086607,1.24252 -2.221623,2.55127 -2.522259,2.90832 -0.300635,0.35706 -0.567829,0.65172 -0.593762,0.65482 -0.02593,0.003 -3.049191,-4.78063 -6.718347,-10.63049 z"
     id="path4293"
     inkscape:connector-curvature="0" />
  <path
     style="fill:#000000;fill-opacity:1"
     d="m 107.85331,124.32941 c -1.43758,-2.06597 -6.03769,-8.67181 -10.222468,-14.67963 l -7.608685,-10.923318 0.702342,-1.018851 c 0.386288,-0.560368 2.998105,-4.304223 5.804037,-8.319676 l 5.101694,-7.300825 3.65793,-0.0022 3.65793,-0.0022 0.0902,0.25053 c 0.0496,0.137791 2.90626,7.834746 6.34812,17.104343 3.44186,9.2696 7.21506,19.43655 8.38489,22.59322 1.16984,3.15667 2.15468,5.81115 2.18855,5.89884 0.0584,0.15107 -0.34561,0.15934 -7.71459,0.1578 l -7.77616,-0.002 -2.61379,-3.75632 z"
     id="path4295"
     inkscape:connector-curvature="0" />
  <path
     style="fill:#000000;fill-opacity:1"
     d="M 73.96931,98.233765 C 72.497542,96.895281 68.3558,93.123721 64.76544,89.852519 l -6.527927,-5.947638 0.134773,-0.523944 c 0.220904,-0.858788 10.479156,-39.37216 10.681064,-40.100768 0.102196,-0.36879 0.203049,-0.687764 0.224116,-0.708831 0.03882,-0.03882 2.540752,1.589674 11.154383,7.260312 4.038905,2.658946 4.758428,3.164775 4.718571,3.317191 -0.02587,0.09891 0.338979,7.356653 0.810768,16.128316 1.449466,26.949033 1.515678,28.219075 1.473366,28.261386 -0.03167,0.03167 -10.69403,3.128827 -10.771393,3.128827 -0.0098,0 -1.222082,-1.095121 -2.693851,-2.433605 z"
     id="path4297"
     inkscape:connector-curvature="0" />
  <path
     style="fill:#000000;fill-opacity:1"
     d="m 118.25629,75.762388 c -2.38003,-0.81179 -5.81224,-1.981288 -7.62712,-2.598885 l -3.29979,-1.122904 -0.19273,-0.513413 c -0.106,-0.282378 -1.58745,-4.264527 -3.2921,-8.84922 -8.285143,-22.283082 -11.916834,-32.112794 -11.891968,-32.18739 0.01499,-0.04498 0.152567,0.117256 0.305717,0.360533 2.56126,4.068549 9.369761,14.420708 21.611471,32.859733 4.91788,7.40754 8.94161,13.485162 8.94161,13.505826 0,0.08953 -0.45158,-0.05464 -4.55509,-1.45428 z"
     id="path4299"
     inkscape:connector-curvature="0" />
  <path
     style="fill:#000000;fill-opacity:0.75159236"
     d="M 100.10709,113.43494 89.863048,98.722434 91.04881,97.008189 c 0.652169,-0.942835 3.251783,-4.67106 5.77692,-8.284945 l 4.59116,-6.5707 3.84369,0 3.84368,0 8.4302,22.675356 c 4.63661,12.47145 8.43523,22.8203 8.44138,22.99745 0.009,0.25084 -1.71822,0.32209 -7.80676,0.32209 l -7.81795,0 -10.24404,-14.7125 z"
     id="path4325"
     inkscape:connector-curvature="0" />
  <path
     style="fill:#000000;fill-opacity:1"
     d="M 100.10722,113.46102 C 93.695378,104.25269 89.951707,98.654069 90.07069,98.451477 c 0.543433,-0.925294 10.85869,-15.642366 11.43892,-16.320244 0.37396,-0.436885 1.57728,-2.089222 2.67405,-3.671862 1.09677,-1.58264 2.07879,-2.877527 2.18226,-2.877527 0.10347,0 0.63784,1.246501 1.18747,2.770001 0.54964,1.523501 1.16591,3.106971 1.36949,3.518823 0.20357,0.411852 1.99167,5.10797 3.97355,10.435817 9.4283,25.345895 13.08089,35.390535 12.94767,35.606085 -0.0821,0.13288 -3.48126,0.23487 -7.82786,0.23487 l -7.68271,0 -10.22631,-14.68642 z"
     id="path4333"
     inkscape:connector-curvature="0" />
  <path
     style="fill:#ff0000;fill-opacity:0.46496814"
     d="m 75.13104,145.28017 c -3.949089,-1.04688 -7.212279,-1.93838 -7.251533,-1.9811 -0.620859,-0.67565 -27.955761,-44.665984 -27.955761,-44.989489 0,-0.250622 6.2449,-13.554648 13.877555,-29.564504 L 67.678856,39.636251 78.087123,31.588413 c 8.405286,-6.499101 10.542526,-8.036305 11.105928,-7.98791 0.622124,0.05344 2.667485,3.028264 18.891219,27.47587 l 18.19357,27.415938 2.13282,17.805937 2.13283,17.805932 -0.94022,7.79656 c -0.51712,4.2881 -1.04952,7.89494 -1.18311,8.0152 -0.1336,0.12025 -4.45857,3.08 -9.61106,6.57721 l -9.36816,6.35857 -12.920685,2.0582 c -7.106374,1.13202 -13.210565,2.10669 -13.564867,2.16595 -0.354302,0.0592 -3.87526,-0.74881 -7.824348,-1.7957 z m -4.750722,-8.13823 c 3.035826,-3.49298 4.58716,-5.39612 4.58716,-5.62743 0,-0.11748 -3.09969,-3.09727 -6.888201,-6.62174 -6.554775,-6.09793 -18.082941,-16.85563 -20.784112,-19.39504 -0.693372,-0.65185 -1.168079,-1.01125 -1.054904,-0.79867 0.643291,1.20833 21.047105,33.79437 21.585055,34.47255 0.144264,0.18187 0.345134,0.29782 0.446379,0.25767 0.101246,-0.0401 1.050127,-1.06945 2.108623,-2.28734 z m 55.458502,-9.22083 c 0.16202,-0.26215 -5.09524,-14.75876 -13.37427,-36.878795 -1.89112,-5.052722 -5.72725,-14.847283 -5.98464,-15.280209 -0.20021,-0.336755 -11.117435,14.671087 -15.640257,21.500561 l -0.962499,1.453377 3.795298,5.503836 c 4.98426,7.22803 16.080728,23.19487 16.405088,23.60547 0.19338,0.24479 2.09863,0.32209 7.93792,0.32209 4.22592,0 7.74643,-0.10185 7.82336,-0.22633 z m -43.656456,-28.846481 5.024653,-1.48277 0.0791,-0.941045 c 0.0435,-0.517573 -0.390715,-9.847072 -0.964935,-20.73222 -0.57422,-10.885145 -1.073629,-20.486896 -1.109799,-21.337222 l -0.06576,-1.546047 -7.849239,-5.214858 c -4.317082,-2.868172 -7.923363,-5.129266 -8.013956,-5.024653 -0.171642,0.198204 -10.734963,39.733899 -10.862333,40.65482 -0.05544,0.400856 2.080601,2.48854 9.029781,8.825351 5.006319,4.565158 9.238623,8.296035 9.405119,8.290855 0.166494,-0.005 2.563812,-0.676686 5.327371,-1.492211 z M 122.63726,77.012646 c 0,-0.06338 -6.35225,-9.716514 -14.11611,-21.451402 -7.76386,-11.734886 -14.604067,-22.089856 -15.20046,-23.011042 -0.596393,-0.921187 -1.085402,-1.589273 -1.086685,-1.484636 -0.0026,0.202104 4.00614,11.118171 10.894755,29.668053 l 4.19846,11.305737 7.33293,2.5243 c 7.00763,2.412321 7.97711,2.709955 7.97711,2.44899 z"
     id="path4339"
     inkscape:connector-curvature="0" />
  <path
     style="fill:#ff0000;fill-opacity:0.46496815"
     d="m 75.271295,145.29913 c -3.871952,-1.03126 -7.194907,-2.03658 -7.384349,-2.23405 C 67.589409,142.75494 57.290356,126.45207 44.222988,105.60625 42.09269,102.20788 40.232756,99.117517 40.089801,98.738784 39.857054,98.122169 40.735976,96.1552 48.497365,79.923222 53.26448,69.95339 59.537093,56.810256 62.436506,50.716254 l 5.27166,-11.080003 8.461052,-6.514526 c 12.681778,-9.764239 12.487948,-9.622571 13.050299,-9.538295 0.306414,0.04592 1.134914,0.961088 2.052524,2.267235 1.426494,2.030505 28.902959,43.423408 33.131809,49.912603 l 1.88139,2.887003 2.12214,17.669738 2.12214,17.669741 -0.93752,7.90023 c -0.76847,6.47568 -1.01626,7.9496 -1.3742,8.17397 -0.24017,0.15055 -3.47829,2.3465 -7.19582,4.87988 -3.71753,2.53339 -7.86736,5.34808 -9.22186,6.25488 l -2.46273,1.64872 -12.868907,2.05524 c -7.077898,1.13038 -13.158793,2.10389 -13.513095,2.16336 -0.354302,0.0595 -3.812145,-0.73564 -7.684093,-1.7669 z m -3.423794,-10.0589 c 2.974144,-3.45959 3.07826,-3.62013 2.656784,-4.09648 -0.241268,-0.27268 -3.743343,-3.57614 -7.782391,-7.34102 -4.039048,-3.76488 -9.992147,-9.33892 -13.22911,-12.38674 -5.802445,-5.4634 -7.2013,-6.69449 -6.731335,-5.92403 0.123003,0.20165 4.448106,7.09194 9.61134,15.31176 5.163233,8.21982 9.913782,15.79075 10.556778,16.82429 0.94994,1.52692 1.230318,1.81672 1.495782,1.54604 0.179685,-0.18321 1.719653,-1.95343 3.422152,-3.93382 z m 52.934289,-7.26121 c 0.90797,-0.15003 0.97181,-0.21528 0.81643,-0.83461 -0.32627,-1.3005 -14.28713,-39.052257 -16.16185,-43.703493 -0.57122,-1.41721 -1.43805,-3.620327 -1.92629,-4.895816 -0.48824,-1.275489 -0.97884,-2.413189 -1.09021,-2.52822 -0.11137,-0.115033 -1.04741,0.986525 -2.08007,2.447908 -1.03267,1.46138 -2.13796,2.946941 -2.4562,3.301243 -0.94327,1.05014 -11.713511,16.551802 -11.711249,16.856041 0.0023,0.310567 3.83297,5.940717 13.654669,20.069117 l 6.5707,9.45187 6.69954,-5.2e-4 c 3.68475,-2.6e-4 7.14278,-0.0739 7.68453,-0.16339 l 0,-1.3e-4 z M 82.274715,98.920818 c 2.672631,-0.773637 4.908926,-1.456211 4.969544,-1.516829 0.06062,-0.06062 -0.355091,-8.908831 -0.923799,-19.662693 C 84.892381,50.737296 85.07254,53.110901 84.413934,52.622518 82.37452,51.1102 69.48869,42.838913 69.364908,42.962695 69.129757,43.197848 58.463745,83.396419 58.539003,83.763888 c 0.120937,0.590516 18.083568,16.788102 18.489871,16.673022 0.212582,-0.0602 2.57321,-0.742455 5.245841,-1.516092 z M 122.47924,76.82299 C 122.3756,76.655293 116.47251,67.75586 109.36127,57.046472 102.25002,46.337082 95.544697,36.192439 94.460539,34.502819 93.376381,32.8132 92.489345,31.486452 92.489345,31.55449 c 0,0.06804 1.261221,3.537619 2.802712,7.710177 9.160003,24.794576 11.977203,32.344934 12.135603,32.524543 0.15996,0.181388 14.53221,5.265218 15.03155,5.317044 0.11466,0.0119 0.12367,-0.115569 0.02,-0.283264 l 0,0 z"
     id="path4341"
     inkscape:connector-curvature="0" />
  <path
     style="fill:#ffffff;fill-opacity:1"
     d="M 72.906082,97.182433 C 62.234414,87.519049 58.47631,83.989681 58.47631,83.630928 c 0,-0.353521 1.225792,-5.020896 8.644379,-32.914674 1.093065,-4.109908 2.081405,-7.575878 2.196311,-7.702154 0.217162,-0.238652 1.64178,0.64168 10.463741,6.465989 l 5.199775,3.432921 0.141348,1.34953 c 0.368057,3.514107 2.241487,43.036032 2.047989,43.204435 -0.18299,0.159256 -10.135969,3.120545 -10.432662,3.104015 -0.05216,-0.003 -1.776155,-1.527761 -3.831109,-3.388557 z"
     id="path4343"
     inkscape:connector-curvature="0" />
  <path
     style="fill:#ffffff;fill-opacity:1"
     d="m 110.0781,127.82535 c -0.33233,-0.42162 -11.542188,-16.56191 -16.397252,-23.60926 l -3.794316,-5.507634 0.697857,-1.06307 c 4.529448,-6.899871 15.550231,-21.920411 15.857711,-21.612931 0.62689,0.626887 12.81752,32.850455 18.26833,48.288765 1.2276,3.47692 1.23544,3.51925 0.6795,3.66835 -0.30934,0.083 -3.82392,0.15242 -7.81019,0.15436 -5.49449,0.003 -7.30917,-0.0744 -7.50164,-0.31858 z"
     id="path4345"
     inkscape:connector-curvature="0" />
  <path
     style="fill:#ffffff;fill-opacity:1"
     d="m 114.67934,74.545673 c -4.02255,-1.404831 -7.33832,-2.58706 -7.36837,-2.627174 -0.0699,-0.09327 -12.069658,-32.484378 -13.662399,-36.879002 -0.65948,-1.81961 -1.154077,-3.353359 -1.099105,-3.408331 0.05497,-0.05497 2.212671,3.115126 4.794888,7.044662 2.582216,3.929536 9.329486,14.134525 14.993926,22.677753 5.66444,8.543227 10.29898,15.587403 10.29898,15.653726 0,0.277918 -0.9939,-0.02953 -7.95792,-2.461634 z"
     id="path4349"
     inkscape:connector-curvature="0" />
  <path
     style="fill:#ffffff;fill-opacity:1"
     d="m 67.684879,139.01274 c -2.984476,-4.75681 -20.719596,-32.99485 -21.130623,-33.64439 -0.303626,-0.47981 -0.521002,-0.89931 -0.483058,-0.93221 0.03795,-0.0329 2.774711,2.48228 6.081702,5.5893 3.306992,3.10702 8.103496,7.58061 10.658899,9.94131 7.939582,7.33465 12.207649,11.3864 12.20708,11.58839 -3.64e-4,0.14621 -5.851545,7.09668 -6.738209,8.00421 -0.08529,0.0873 -0.351035,-0.1565 -0.595791,-0.54661 z"
     id="path4403"
     inkscape:connector-curvature="0" />
  <path
     style="fill:#ffffff;fill-opacity:1"
     d="m 110.36688,127.89124 c -0.15031,-0.0443 -0.56397,-0.50623 -0.91922,-1.02653 -0.35526,-0.5203 -3.06742,-4.43064 -6.02703,-8.68964 -2.95961,-4.25901 -7.205382,-10.38674 -9.435048,-13.61719 L 89.931645,98.684334 92.0133,95.629913 c 4.859141,-7.129839 13.01736,-18.233822 14.14908,-19.258009 0.32001,-0.289609 0.41117,-0.10804 2.16211,4.306548 3.58855,9.047678 9.43364,24.579338 13.9741,37.132208 3.38195,9.34997 3.52854,9.81158 3.18488,10.02893 -0.26183,0.16561 -14.56405,0.21447 -15.11659,0.0516 z"
     id="path4405"
     inkscape:connector-curvature="0" />
  <path
     style="fill:#ffffff;fill-opacity:1"
     d="M 75.657138,99.557655 C 71.800576,96.170275 60.44275,85.720783 59.176952,84.395461 l -0.62849,-0.658045 0.216304,-1.047065 C 59.194674,80.6093 68.778354,44.642643 69.19489,43.547071 c 0.09197,-0.24189 0.274374,-0.4398 0.405351,-0.4398 0.245762,0 4.204375,2.504996 11.229418,7.105933 2.569363,1.682762 4.065112,2.77425 4.119837,3.006355 0.277445,1.176709 2.093029,37.859307 2.094667,42.321247 l 7.29e-4,1.872095 -0.50106,0.193463 c -0.540781,0.2088 -8.586679,2.623936 -9.337923,2.802956 -0.368496,0.0878 -0.664341,-0.0749 -1.548729,-0.851665 l -4.2e-5,0 z"
     id="path4407"
     inkscape:connector-curvature="0" />
  <path
     style="fill:#ffffff;fill-opacity:1"
     d="m 118.29273,75.732423 c -3.9586,-1.346877 -10.86675,-3.796844 -10.93433,-3.877842 -0.0997,-0.119524 -13.437492,-36.166508 -14.137251,-38.207665 -0.289338,-0.84398 -0.498887,-1.56169 -0.465666,-1.594911 0.07632,-0.07632 3.418964,4.93549 17.338047,25.995944 13.59646,20.572295 12.5562,18.952279 12.15986,18.936743 -0.17412,-0.0068 -1.95642,-0.570346 -3.96066,-1.252269 z"
     id="path4409"
     inkscape:connector-curvature="0" />
  <path
     style="fill:#ff0000;fill-opacity:0.33121021"
     d="M 75.220049,99.246528 C 70.858891,95.372597 60.708683,86.020794 59.258283,84.540299 l -0.823389,-0.840473 0.735644,-2.877053 c 1.034768,-4.046906 8.339275,-31.562898 9.040556,-34.055669 1.118985,-3.977539 1.062171,-3.824049 1.379672,-3.72734 0.155396,0.04733 0.77534,0.379688 1.377654,0.738569 1.051525,0.626536 13.760025,8.914915 13.935304,9.08849 0.279409,0.276693 1.222204,17.693856 1.967751,36.352156 0.106178,2.657269 0.225321,5.597314 0.264762,6.533434 l 0.07171,1.702037 -2.032203,0.644227 c -2.20072,0.697649 -7.460862,2.246163 -8.087553,2.380873 -0.352393,0.0757 -0.5173,-0.0331 -1.868141,-1.233022 z"
     id="path4467"
     inkscape:connector-curvature="0" />
  <path
     style="fill:#ff0000;fill-opacity:0.33121021"
     d="m 121.27559,76.78848 c -0.91011,-0.269286 -7.38266,-2.514799 -12.25415,-4.251315 l -1.69327,-0.603592 -0.28316,-0.730207 C 106.47137,69.72405 101.23568,55.606003 97.385554,45.156639 93.465114,34.516432 92.53942,31.917114 92.636128,31.820406 c 0.08003,-0.08002 2.535207,3.553748 8.444892,12.498791 3.04298,4.605931 8.27617,12.51976 11.6293,17.586285 6.71636,10.148313 9.92184,15.038979 9.92184,15.137979 0,0.114202 -0.29837,0.05812 -1.35657,-0.254981 z"
     id="path4469"
     inkscape:connector-curvature="0" />
  <path
     style="fill:#ff0000;fill-opacity:0.33121021"
     d="m 111.32974,128.01642 c -0.81889,-0.0632 -1.11666,-0.14043 -1.30972,-0.33952 -0.28494,-0.29385 -1.38954,-1.87333 -9.46063,-13.52791 -8.9212,-12.88215 -10.651894,-15.393126 -10.651894,-15.454303 0,-0.08562 2.799893,-4.208943 4.684659,-6.898963 4.574051,-6.528283 11.471715,-15.718145 11.797615,-15.718145 0.42232,0 11.73038,29.729401 17.77171,46.722621 1.58113,4.44746 1.71992,4.97519 1.35075,5.13639 -0.28842,0.12593 -12.68206,0.19569 -14.18249,0.0798 z"
     id="path4471"
     inkscape:connector-curvature="0" />
  <path
     style="fill:#ff0000;fill-opacity:0.33121021"
     d="m 67.931364,139.31703 c -0.14688,-0.16635 -0.445858,-0.59234 -0.664397,-0.94664 -0.218539,-0.3543 -4.585005,-7.31151 -9.703258,-15.46047 -5.118253,-8.14896 -9.769347,-15.5576 -10.335764,-16.46364 -0.566418,-0.90605 -0.994612,-1.6826 -0.951543,-1.72567 0.08506,-0.0851 0.805002,0.56845 6.841425,6.21017 2.200324,2.05644 6.493589,6.05307 9.54059,8.88139 7.749963,7.19374 12.303958,11.52849 12.303958,11.71162 0,0.15606 -4.767856,5.92095 -6.07246,7.34231 l -0.691496,0.75337 -0.267055,-0.30244 z"
     id="path4473"
     inkscape:connector-curvature="0" />
</svg>
